G04 #@! TF.GenerationSoftware,KiCad,Pcbnew,(2017-12-10 revision 6ee26fd)-master*
G04 #@! TF.CreationDate,2018-02-02T02:59:03+01:00*
G04 #@! TF.ProjectId,mmdvm_hs_dual_hat,6D6D64766D5F68735F6475616C5F6861,rev?*
G04 #@! TF.SameCoordinates,Original*
G04 #@! TF.FileFunction,Soldermask,Bot*
G04 #@! TF.FilePolarity,Negative*
%FSLAX46Y46*%
G04 Gerber Fmt 4.6, Leading zero omitted, Abs format (unit mm)*
G04 Created by KiCad (PCBNEW (2017-12-10 revision 6ee26fd)-master) date Friday, 02. February 2018 'u59' 02:59:03*
%MOMM*%
%LPD*%
G01*
G04 APERTURE LIST*
%ADD10C,6.200000*%
%ADD11C,2.200000*%
%ADD12C,2.000000*%
%ADD13R,1.727200X2.032000*%
%ADD14O,1.727200X2.032000*%
%ADD15C,0.899160*%
%ADD16R,1.727200X1.727200*%
%ADD17O,1.727200X1.727200*%
G04 APERTURE END LIST*
D10*
X151750000Y-86000000D03*
X151750000Y-135000000D03*
X93750000Y-135000000D03*
X93750000Y-86000000D03*
D11*
X93960000Y-98290000D03*
X93960000Y-93210000D03*
X99040000Y-93210000D03*
X99040000Y-98290000D03*
D12*
X96500000Y-95750000D03*
D11*
X93960000Y-127540000D03*
X93960000Y-122460000D03*
X99040000Y-122460000D03*
X99040000Y-127540000D03*
D12*
X96500000Y-125000000D03*
D13*
X137180000Y-134200000D03*
D14*
X134640000Y-134200000D03*
X132100000Y-134200000D03*
X129560000Y-134200000D03*
D13*
X144850000Y-123550000D03*
D14*
X147390000Y-123550000D03*
X149930000Y-123550000D03*
X152470000Y-123550000D03*
D13*
X144850000Y-128050000D03*
D14*
X147390000Y-128050000D03*
X149930000Y-128050000D03*
X152470000Y-128050000D03*
D15*
X150149100Y-97949640D03*
X150149100Y-93550360D03*
D16*
X98800000Y-87300000D03*
D17*
X98800000Y-84760000D03*
X101340000Y-87300000D03*
X101340000Y-84760000D03*
X103880000Y-87300000D03*
X103880000Y-84760000D03*
X106420000Y-87300000D03*
X106420000Y-84760000D03*
X108960000Y-87300000D03*
X108960000Y-84760000D03*
X111500000Y-87300000D03*
X111500000Y-84760000D03*
X114040000Y-87300000D03*
X114040000Y-84760000D03*
X116580000Y-87300000D03*
X116580000Y-84760000D03*
X119120000Y-87300000D03*
X119120000Y-84760000D03*
X121660000Y-87300000D03*
X121660000Y-84760000D03*
X124200000Y-87300000D03*
X124200000Y-84760000D03*
X126740000Y-87300000D03*
X126740000Y-84760000D03*
X129280000Y-87300000D03*
X129280000Y-84760000D03*
X131820000Y-87300000D03*
X131820000Y-84760000D03*
X134360000Y-87300000D03*
X134360000Y-84760000D03*
X136900000Y-87300000D03*
X136900000Y-84760000D03*
X139440000Y-87300000D03*
X139440000Y-84760000D03*
X141980000Y-87300000D03*
X141980000Y-84760000D03*
X144520000Y-87300000D03*
X144520000Y-84760000D03*
X147060000Y-87300000D03*
X147060000Y-84760000D03*
D16*
X129400000Y-123000000D03*
D17*
X131940000Y-123000000D03*
X129400000Y-125540000D03*
X131940000Y-125540000D03*
X129400000Y-128080000D03*
X131940000Y-128080000D03*
M02*
