G04 #@! TF.GenerationSoftware,KiCad,Pcbnew,(2017-12-10 revision 6ee26fd)-master*
G04 #@! TF.CreationDate,2018-02-02T02:59:03+01:00*
G04 #@! TF.ProjectId,mmdvm_hs_dual_hat,6D6D64766D5F68735F6475616C5F6861,rev?*
G04 #@! TF.SameCoordinates,Original*
G04 #@! TF.FileFunction,Legend,Top*
G04 #@! TF.FilePolarity,Positive*
%FSLAX46Y46*%
G04 Gerber Fmt 4.6, Leading zero omitted, Abs format (unit mm)*
G04 Created by KiCad (PCBNEW (2017-12-10 revision 6ee26fd)-master) date Friday, 02. February 2018 'u59' 02:59:03*
%MOMM*%
%LPD*%
G01*
G04 APERTURE LIST*
%ADD10C,0.250000*%
%ADD11C,0.120000*%
%ADD12C,0.150000*%
%ADD13C,0.125000*%
G04 APERTURE END LIST*
D10*
X99797619Y-102600595D02*
X100797619Y-102600595D01*
X100083333Y-102933928D01*
X100797619Y-103267261D01*
X99797619Y-103267261D01*
X99797619Y-103743452D02*
X100797619Y-103743452D01*
X100083333Y-104076785D01*
X100797619Y-104410119D01*
X99797619Y-104410119D01*
X99797619Y-104886309D02*
X100797619Y-104886309D01*
X100797619Y-105124404D01*
X100750000Y-105267261D01*
X100654761Y-105362500D01*
X100559523Y-105410119D01*
X100369047Y-105457738D01*
X100226190Y-105457738D01*
X100035714Y-105410119D01*
X99940476Y-105362500D01*
X99845238Y-105267261D01*
X99797619Y-105124404D01*
X99797619Y-104886309D01*
X100797619Y-105743452D02*
X99797619Y-106076785D01*
X100797619Y-106410119D01*
X99797619Y-106743452D02*
X100797619Y-106743452D01*
X100083333Y-107076785D01*
X100797619Y-107410119D01*
X99797619Y-107410119D01*
X99702380Y-107648214D02*
X99702380Y-108410119D01*
X99797619Y-108648214D02*
X100797619Y-108648214D01*
X100321428Y-108648214D02*
X100321428Y-109219642D01*
X99797619Y-109219642D02*
X100797619Y-109219642D01*
X99845238Y-109648214D02*
X99797619Y-109791071D01*
X99797619Y-110029166D01*
X99845238Y-110124404D01*
X99892857Y-110172023D01*
X99988095Y-110219642D01*
X100083333Y-110219642D01*
X100178571Y-110172023D01*
X100226190Y-110124404D01*
X100273809Y-110029166D01*
X100321428Y-109838690D01*
X100369047Y-109743452D01*
X100416666Y-109695833D01*
X100511904Y-109648214D01*
X100607142Y-109648214D01*
X100702380Y-109695833D01*
X100750000Y-109743452D01*
X100797619Y-109838690D01*
X100797619Y-110076785D01*
X100750000Y-110219642D01*
X99702380Y-110410119D02*
X99702380Y-111172023D01*
X99797619Y-111410119D02*
X100797619Y-111410119D01*
X100797619Y-111648214D01*
X100750000Y-111791071D01*
X100654761Y-111886309D01*
X100559523Y-111933928D01*
X100369047Y-111981547D01*
X100226190Y-111981547D01*
X100035714Y-111933928D01*
X99940476Y-111886309D01*
X99845238Y-111791071D01*
X99797619Y-111648214D01*
X99797619Y-111410119D01*
X100464285Y-112838690D02*
X99797619Y-112838690D01*
X100464285Y-112410119D02*
X99940476Y-112410119D01*
X99845238Y-112457738D01*
X99797619Y-112552976D01*
X99797619Y-112695833D01*
X99845238Y-112791071D01*
X99892857Y-112838690D01*
X99797619Y-113743452D02*
X100321428Y-113743452D01*
X100416666Y-113695833D01*
X100464285Y-113600595D01*
X100464285Y-113410119D01*
X100416666Y-113314880D01*
X99845238Y-113743452D02*
X99797619Y-113648214D01*
X99797619Y-113410119D01*
X99845238Y-113314880D01*
X99940476Y-113267261D01*
X100035714Y-113267261D01*
X100130952Y-113314880D01*
X100178571Y-113410119D01*
X100178571Y-113648214D01*
X100226190Y-113743452D01*
X99797619Y-114362500D02*
X99845238Y-114267261D01*
X99940476Y-114219642D01*
X100797619Y-114219642D01*
X99702380Y-114505357D02*
X99702380Y-115267261D01*
X99797619Y-115505357D02*
X100797619Y-115505357D01*
X100321428Y-115505357D02*
X100321428Y-116076785D01*
X99797619Y-116076785D02*
X100797619Y-116076785D01*
X99797619Y-116981547D02*
X100321428Y-116981547D01*
X100416666Y-116933928D01*
X100464285Y-116838690D01*
X100464285Y-116648214D01*
X100416666Y-116552976D01*
X99845238Y-116981547D02*
X99797619Y-116886309D01*
X99797619Y-116648214D01*
X99845238Y-116552976D01*
X99940476Y-116505357D01*
X100035714Y-116505357D01*
X100130952Y-116552976D01*
X100178571Y-116648214D01*
X100178571Y-116886309D01*
X100226190Y-116981547D01*
X100464285Y-117314880D02*
X100464285Y-117695833D01*
X100797619Y-117457738D02*
X99940476Y-117457738D01*
X99845238Y-117505357D01*
X99797619Y-117600595D01*
X99797619Y-117695833D01*
X97666666Y-102886309D02*
X97714285Y-102838690D01*
X97857142Y-102743452D01*
X97952380Y-102695833D01*
X98095238Y-102648214D01*
X98333333Y-102600595D01*
X98523809Y-102600595D01*
X98761904Y-102648214D01*
X98904761Y-102695833D01*
X99000000Y-102743452D01*
X99142857Y-102838690D01*
X99190476Y-102886309D01*
X98095238Y-103695833D02*
X98047619Y-103600595D01*
X98047619Y-103410119D01*
X98095238Y-103314880D01*
X98142857Y-103267261D01*
X98238095Y-103219642D01*
X98523809Y-103219642D01*
X98619047Y-103267261D01*
X98666666Y-103314880D01*
X98714285Y-103410119D01*
X98714285Y-103600595D01*
X98666666Y-103695833D01*
X97666666Y-104029166D02*
X97714285Y-104076785D01*
X97857142Y-104172023D01*
X97952380Y-104219642D01*
X98095238Y-104267261D01*
X98333333Y-104314880D01*
X98523809Y-104314880D01*
X98761904Y-104267261D01*
X98904761Y-104219642D01*
X99000000Y-104172023D01*
X99142857Y-104076785D01*
X99190476Y-104029166D01*
X99047619Y-105743452D02*
X99047619Y-105838690D01*
X99000000Y-105933928D01*
X98952380Y-105981547D01*
X98857142Y-106029166D01*
X98666666Y-106076785D01*
X98428571Y-106076785D01*
X98238095Y-106029166D01*
X98142857Y-105981547D01*
X98095238Y-105933928D01*
X98047619Y-105838690D01*
X98047619Y-105743452D01*
X98095238Y-105648214D01*
X98142857Y-105600595D01*
X98238095Y-105552976D01*
X98428571Y-105505357D01*
X98666666Y-105505357D01*
X98857142Y-105552976D01*
X98952380Y-105600595D01*
X99000000Y-105648214D01*
X99047619Y-105743452D01*
X98047619Y-107029166D02*
X98047619Y-106457738D01*
X98047619Y-106743452D02*
X99047619Y-106743452D01*
X98904761Y-106648214D01*
X98809523Y-106552976D01*
X98761904Y-106457738D01*
X99095238Y-108172023D02*
X97809523Y-107314880D01*
X98952380Y-108457738D02*
X99000000Y-108505357D01*
X99047619Y-108600595D01*
X99047619Y-108838690D01*
X99000000Y-108933928D01*
X98952380Y-108981547D01*
X98857142Y-109029166D01*
X98761904Y-109029166D01*
X98619047Y-108981547D01*
X98047619Y-108410119D01*
X98047619Y-109029166D01*
X99047619Y-109648214D02*
X99047619Y-109743452D01*
X99000000Y-109838690D01*
X98952380Y-109886309D01*
X98857142Y-109933928D01*
X98666666Y-109981547D01*
X98428571Y-109981547D01*
X98238095Y-109933928D01*
X98142857Y-109886309D01*
X98095238Y-109838690D01*
X98047619Y-109743452D01*
X98047619Y-109648214D01*
X98095238Y-109552976D01*
X98142857Y-109505357D01*
X98238095Y-109457738D01*
X98428571Y-109410119D01*
X98666666Y-109410119D01*
X98857142Y-109457738D01*
X98952380Y-109505357D01*
X99000000Y-109552976D01*
X99047619Y-109648214D01*
X98047619Y-110933928D02*
X98047619Y-110362500D01*
X98047619Y-110648214D02*
X99047619Y-110648214D01*
X98904761Y-110552976D01*
X98809523Y-110457738D01*
X98761904Y-110362500D01*
X98619047Y-111505357D02*
X98666666Y-111410119D01*
X98714285Y-111362500D01*
X98809523Y-111314880D01*
X98857142Y-111314880D01*
X98952380Y-111362500D01*
X99000000Y-111410119D01*
X99047619Y-111505357D01*
X99047619Y-111695833D01*
X99000000Y-111791071D01*
X98952380Y-111838690D01*
X98857142Y-111886309D01*
X98809523Y-111886309D01*
X98714285Y-111838690D01*
X98666666Y-111791071D01*
X98619047Y-111695833D01*
X98619047Y-111505357D01*
X98571428Y-111410119D01*
X98523809Y-111362500D01*
X98428571Y-111314880D01*
X98238095Y-111314880D01*
X98142857Y-111362500D01*
X98095238Y-111410119D01*
X98047619Y-111505357D01*
X98047619Y-111695833D01*
X98095238Y-111791071D01*
X98142857Y-111838690D01*
X98238095Y-111886309D01*
X98428571Y-111886309D01*
X98523809Y-111838690D01*
X98571428Y-111791071D01*
X98619047Y-111695833D01*
X98714285Y-112981547D02*
X98047619Y-113219642D01*
X98714285Y-113457738D01*
X99047619Y-114029166D02*
X99047619Y-114124404D01*
X99000000Y-114219642D01*
X98952380Y-114267261D01*
X98857142Y-114314880D01*
X98666666Y-114362500D01*
X98428571Y-114362500D01*
X98238095Y-114314880D01*
X98142857Y-114267261D01*
X98095238Y-114219642D01*
X98047619Y-114124404D01*
X98047619Y-114029166D01*
X98095238Y-113933928D01*
X98142857Y-113886309D01*
X98238095Y-113838690D01*
X98428571Y-113791071D01*
X98666666Y-113791071D01*
X98857142Y-113838690D01*
X98952380Y-113886309D01*
X99000000Y-113933928D01*
X99047619Y-114029166D01*
X98142857Y-114791071D02*
X98095238Y-114838690D01*
X98047619Y-114791071D01*
X98095238Y-114743452D01*
X98142857Y-114791071D01*
X98047619Y-114791071D01*
X98047619Y-115791071D02*
X98047619Y-115219642D01*
X98047619Y-115505357D02*
X99047619Y-115505357D01*
X98904761Y-115410119D01*
X98809523Y-115314880D01*
X98761904Y-115219642D01*
X96392857Y-103172023D02*
X96345238Y-103124404D01*
X96297619Y-102981547D01*
X96297619Y-102886309D01*
X96345238Y-102743452D01*
X96440476Y-102648214D01*
X96535714Y-102600595D01*
X96726190Y-102552976D01*
X96869047Y-102552976D01*
X97059523Y-102600595D01*
X97154761Y-102648214D01*
X97250000Y-102743452D01*
X97297619Y-102886309D01*
X97297619Y-102981547D01*
X97250000Y-103124404D01*
X97202380Y-103172023D01*
X96392857Y-104172023D02*
X96345238Y-104124404D01*
X96297619Y-103981547D01*
X96297619Y-103886309D01*
X96345238Y-103743452D01*
X96440476Y-103648214D01*
X96535714Y-103600595D01*
X96726190Y-103552976D01*
X96869047Y-103552976D01*
X97059523Y-103600595D01*
X97154761Y-103648214D01*
X97250000Y-103743452D01*
X97297619Y-103886309D01*
X97297619Y-103981547D01*
X97250000Y-104124404D01*
X97202380Y-104172023D01*
X96678571Y-104600595D02*
X96678571Y-105362500D01*
X96821428Y-106172023D02*
X96773809Y-106314880D01*
X96726190Y-106362500D01*
X96630952Y-106410119D01*
X96488095Y-106410119D01*
X96392857Y-106362500D01*
X96345238Y-106314880D01*
X96297619Y-106219642D01*
X96297619Y-105838690D01*
X97297619Y-105838690D01*
X97297619Y-106172023D01*
X97250000Y-106267261D01*
X97202380Y-106314880D01*
X97107142Y-106362500D01*
X97011904Y-106362500D01*
X96916666Y-106314880D01*
X96869047Y-106267261D01*
X96821428Y-106172023D01*
X96821428Y-105838690D01*
X96773809Y-107029166D02*
X96297619Y-107029166D01*
X97297619Y-106695833D02*
X96773809Y-107029166D01*
X97297619Y-107362500D01*
X96678571Y-107695833D02*
X96678571Y-108457738D01*
X96297619Y-108933928D02*
X97297619Y-108933928D01*
X96297619Y-109505357D01*
X97297619Y-109505357D01*
X96392857Y-110552976D02*
X96345238Y-110505357D01*
X96297619Y-110362500D01*
X96297619Y-110267261D01*
X96345238Y-110124404D01*
X96440476Y-110029166D01*
X96535714Y-109981547D01*
X96726190Y-109933928D01*
X96869047Y-109933928D01*
X97059523Y-109981547D01*
X97154761Y-110029166D01*
X97250000Y-110124404D01*
X97297619Y-110267261D01*
X97297619Y-110362500D01*
X97250000Y-110505357D01*
X97202380Y-110552976D01*
X96678571Y-110981547D02*
X96678571Y-111743452D01*
X96345238Y-112172023D02*
X96297619Y-112314880D01*
X96297619Y-112552976D01*
X96345238Y-112648214D01*
X96392857Y-112695833D01*
X96488095Y-112743452D01*
X96583333Y-112743452D01*
X96678571Y-112695833D01*
X96726190Y-112648214D01*
X96773809Y-112552976D01*
X96821428Y-112362500D01*
X96869047Y-112267261D01*
X96916666Y-112219642D01*
X97011904Y-112172023D01*
X97107142Y-112172023D01*
X97202380Y-112219642D01*
X97250000Y-112267261D01*
X97297619Y-112362500D01*
X97297619Y-112600595D01*
X97250000Y-112743452D01*
X96583333Y-113124404D02*
X96583333Y-113600595D01*
X96297619Y-113029166D02*
X97297619Y-113362500D01*
X96297619Y-113695833D01*
D11*
X139410000Y-92590000D02*
X138150000Y-92590000D01*
X132590000Y-92590000D02*
X133850000Y-92590000D01*
X139410000Y-96350000D02*
X139410000Y-92590000D01*
X132590000Y-98600000D02*
X132590000Y-92590000D01*
D12*
X102250000Y-97225000D02*
X102750000Y-97225000D01*
X102750000Y-96275000D02*
X102250000Y-96275000D01*
X102250000Y-129725000D02*
X102750000Y-129725000D01*
X102750000Y-128775000D02*
X102250000Y-128775000D01*
X105250000Y-97225000D02*
X105750000Y-97225000D01*
X105750000Y-96275000D02*
X105250000Y-96275000D01*
X105750000Y-119525000D02*
X105250000Y-119525000D01*
X105250000Y-120475000D02*
X105750000Y-120475000D01*
X105250000Y-95475000D02*
X105750000Y-95475000D01*
X105750000Y-94525000D02*
X105250000Y-94525000D01*
X105250000Y-100725000D02*
X105750000Y-100725000D01*
X105750000Y-99775000D02*
X105250000Y-99775000D01*
X105250000Y-102475000D02*
X105750000Y-102475000D01*
X105750000Y-101525000D02*
X105250000Y-101525000D01*
X105750000Y-117775000D02*
X105250000Y-117775000D01*
X105250000Y-118725000D02*
X105750000Y-118725000D01*
X105250000Y-123975000D02*
X105750000Y-123975000D01*
X105750000Y-123025000D02*
X105250000Y-123025000D01*
X105250000Y-125975000D02*
X105750000Y-125975000D01*
X105750000Y-125025000D02*
X105250000Y-125025000D01*
X105250000Y-105975000D02*
X105750000Y-105975000D01*
X105750000Y-105025000D02*
X105250000Y-105025000D01*
X105250000Y-129725000D02*
X105750000Y-129725000D01*
X105750000Y-128775000D02*
X105250000Y-128775000D01*
X105250000Y-93725000D02*
X105750000Y-93725000D01*
X105750000Y-92775000D02*
X105250000Y-92775000D01*
X105750000Y-116025000D02*
X105250000Y-116025000D01*
X105250000Y-116975000D02*
X105750000Y-116975000D01*
X105250000Y-109475000D02*
X105750000Y-109475000D01*
X105750000Y-108525000D02*
X105250000Y-108525000D01*
X105250000Y-133225000D02*
X105750000Y-133225000D01*
X105750000Y-132275000D02*
X105250000Y-132275000D01*
X105250000Y-91975000D02*
X105750000Y-91975000D01*
X105750000Y-91025000D02*
X105250000Y-91025000D01*
X108750000Y-119525000D02*
X108250000Y-119525000D01*
X108250000Y-120475000D02*
X108750000Y-120475000D01*
X105250000Y-112975000D02*
X105750000Y-112975000D01*
X105750000Y-112025000D02*
X105250000Y-112025000D01*
X105250000Y-136725000D02*
X105750000Y-136725000D01*
X105750000Y-135775000D02*
X105250000Y-135775000D01*
X111775000Y-91250000D02*
X111775000Y-91750000D01*
X112725000Y-91750000D02*
X112725000Y-91250000D01*
X112775000Y-115000000D02*
X112775000Y-115500000D01*
X113725000Y-115500000D02*
X113725000Y-115000000D01*
X110000000Y-97225000D02*
X110500000Y-97225000D01*
X110500000Y-96275000D02*
X110000000Y-96275000D01*
X108250000Y-118725000D02*
X108750000Y-118725000D01*
X108750000Y-117775000D02*
X108250000Y-117775000D01*
X113525000Y-91250000D02*
X113525000Y-91750000D01*
X114475000Y-91750000D02*
X114475000Y-91250000D01*
X114525000Y-115000000D02*
X114525000Y-115500000D01*
X115475000Y-115500000D02*
X115475000Y-115000000D01*
X115525000Y-91250000D02*
X115525000Y-91750000D01*
X116475000Y-91750000D02*
X116475000Y-91250000D01*
X116275000Y-118000000D02*
X116275000Y-118500000D01*
X117225000Y-118500000D02*
X117225000Y-118000000D01*
X118225000Y-91750000D02*
X118225000Y-91250000D01*
X117275000Y-91250000D02*
X117275000Y-91750000D01*
X117225000Y-115500000D02*
X117225000Y-115000000D01*
X116275000Y-115000000D02*
X116275000Y-115500000D01*
X123725000Y-97750000D02*
X123725000Y-97250000D01*
X122775000Y-97250000D02*
X122775000Y-97750000D01*
X118025000Y-115000000D02*
X118025000Y-115500000D01*
X118975000Y-115500000D02*
X118975000Y-115000000D01*
X118025000Y-118000000D02*
X118025000Y-118500000D01*
X118975000Y-118500000D02*
X118975000Y-118000000D01*
X119725000Y-97250000D02*
X119725000Y-96750000D01*
X118775000Y-96750000D02*
X118775000Y-97250000D01*
X123750000Y-111225000D02*
X124250000Y-111225000D01*
X124250000Y-110275000D02*
X123750000Y-110275000D01*
X123950000Y-130475000D02*
X124450000Y-130475000D01*
X124450000Y-129525000D02*
X123950000Y-129525000D01*
X123750000Y-107725000D02*
X124250000Y-107725000D01*
X124250000Y-106775000D02*
X123750000Y-106775000D01*
X123950000Y-128475000D02*
X124450000Y-128475000D01*
X124450000Y-127525000D02*
X123950000Y-127525000D01*
X130000000Y-97025000D02*
X129500000Y-97025000D01*
X129500000Y-97975000D02*
X130000000Y-97975000D01*
X129525000Y-115500000D02*
X129525000Y-116000000D01*
X130475000Y-116000000D02*
X130475000Y-115500000D01*
X138525000Y-115500000D02*
X138525000Y-116000000D01*
X139475000Y-116000000D02*
X139475000Y-115500000D01*
X135750000Y-126075000D02*
X136250000Y-126075000D01*
X136250000Y-125125000D02*
X135750000Y-125125000D01*
X129500000Y-91225000D02*
X130000000Y-91225000D01*
X130000000Y-90275000D02*
X129500000Y-90275000D01*
X139275000Y-105250000D02*
X139275000Y-105750000D01*
X140225000Y-105750000D02*
X140225000Y-105250000D01*
X141025000Y-105250000D02*
X141025000Y-105750000D01*
X141975000Y-105750000D02*
X141975000Y-105250000D01*
X127150000Y-90900000D02*
X127150000Y-94600000D01*
X125350000Y-90900000D02*
X125350000Y-94600000D01*
X142775000Y-105250000D02*
X142775000Y-105750000D01*
X143725000Y-105750000D02*
X143725000Y-105250000D01*
X130000000Y-94025000D02*
X129500000Y-94025000D01*
X129500000Y-94975000D02*
X130000000Y-94975000D01*
D11*
X102750000Y-94470000D02*
X102250000Y-94470000D01*
X102250000Y-95530000D02*
X102750000Y-95530000D01*
X103000000Y-124470000D02*
X102500000Y-124470000D01*
X102500000Y-125530000D02*
X103000000Y-125530000D01*
X103530000Y-100000000D02*
X103530000Y-99500000D01*
X102470000Y-99500000D02*
X102470000Y-100000000D01*
X103000000Y-121220000D02*
X102500000Y-121220000D01*
X102500000Y-122280000D02*
X103000000Y-122280000D01*
X105750000Y-103220000D02*
X105250000Y-103220000D01*
X105250000Y-104280000D02*
X105750000Y-104280000D01*
X105750000Y-126970000D02*
X105250000Y-126970000D01*
X105250000Y-128030000D02*
X105750000Y-128030000D01*
X105750000Y-97970000D02*
X105250000Y-97970000D01*
X105250000Y-99030000D02*
X105750000Y-99030000D01*
X105250000Y-122280000D02*
X105750000Y-122280000D01*
X105750000Y-121220000D02*
X105250000Y-121220000D01*
X129500000Y-93280000D02*
X130000000Y-93280000D01*
X130000000Y-92220000D02*
X129500000Y-92220000D01*
X95500000Y-92450000D02*
X97500000Y-92450000D01*
X95500000Y-99050000D02*
X97500000Y-99050000D01*
X99800000Y-94750000D02*
X99800000Y-96750000D01*
X93200000Y-94750000D02*
X93200000Y-96750000D01*
X95500000Y-121700000D02*
X97500000Y-121700000D01*
X95500000Y-128300000D02*
X97500000Y-128300000D01*
X99800000Y-124000000D02*
X99800000Y-126000000D01*
X93200000Y-124000000D02*
X93200000Y-126000000D01*
D12*
X135910000Y-132930000D02*
X128290000Y-132930000D01*
X135910000Y-135470000D02*
X128290000Y-135470000D01*
X138730000Y-135750000D02*
X137180000Y-135750000D01*
X128290000Y-132930000D02*
X128290000Y-135470000D01*
X135910000Y-135470000D02*
X135910000Y-132930000D01*
X137180000Y-132650000D02*
X138730000Y-132650000D01*
X138730000Y-132650000D02*
X138730000Y-135750000D01*
X146120000Y-124820000D02*
X153740000Y-124820000D01*
X146120000Y-122280000D02*
X153740000Y-122280000D01*
X143300000Y-122000000D02*
X144850000Y-122000000D01*
X153740000Y-124820000D02*
X153740000Y-122280000D01*
X146120000Y-122280000D02*
X146120000Y-124820000D01*
X144850000Y-125100000D02*
X143300000Y-125100000D01*
X143300000Y-125100000D02*
X143300000Y-122000000D01*
X146120000Y-129320000D02*
X153740000Y-129320000D01*
X146120000Y-126780000D02*
X153740000Y-126780000D01*
X143300000Y-126500000D02*
X144850000Y-126500000D01*
X153740000Y-129320000D02*
X153740000Y-126780000D01*
X146120000Y-126780000D02*
X146120000Y-129320000D01*
X144850000Y-129600000D02*
X143300000Y-129600000D01*
X143300000Y-129600000D02*
X143300000Y-126500000D01*
X141250000Y-101475000D02*
X140750000Y-101475000D01*
X140750000Y-102525000D02*
X141250000Y-102525000D01*
X105250000Y-107775000D02*
X105750000Y-107775000D01*
X105750000Y-106725000D02*
X105250000Y-106725000D01*
X105250000Y-131525000D02*
X105750000Y-131525000D01*
X105750000Y-130475000D02*
X105250000Y-130475000D01*
X105250000Y-111275000D02*
X105750000Y-111275000D01*
X105750000Y-110225000D02*
X105250000Y-110225000D01*
X105000000Y-135025000D02*
X105500000Y-135025000D01*
X105500000Y-133975000D02*
X105000000Y-133975000D01*
X108975000Y-93500000D02*
X108975000Y-94000000D01*
X110025000Y-94000000D02*
X110025000Y-93500000D01*
X108500000Y-115975000D02*
X108000000Y-115975000D01*
X108000000Y-117025000D02*
X108500000Y-117025000D01*
X111725000Y-94000000D02*
X111725000Y-94500000D01*
X112775000Y-94500000D02*
X112775000Y-94000000D01*
X112725000Y-117750000D02*
X112725000Y-118250000D01*
X113775000Y-118250000D02*
X113775000Y-117750000D01*
X113475000Y-94000000D02*
X113475000Y-94500000D01*
X114525000Y-94500000D02*
X114525000Y-94000000D01*
X114475000Y-117750000D02*
X114475000Y-118250000D01*
X115525000Y-118250000D02*
X115525000Y-117750000D01*
X123500000Y-101025000D02*
X124000000Y-101025000D01*
X124000000Y-99975000D02*
X123500000Y-99975000D01*
X123500000Y-104275000D02*
X124000000Y-104275000D01*
X124000000Y-103225000D02*
X123500000Y-103225000D01*
X123750000Y-124525000D02*
X124250000Y-124525000D01*
X124250000Y-123475000D02*
X123750000Y-123475000D01*
X123750000Y-126525000D02*
X124250000Y-126525000D01*
X124250000Y-125475000D02*
X123750000Y-125475000D01*
X136075000Y-122750000D02*
X136075000Y-123250000D01*
X137125000Y-123250000D02*
X137125000Y-122750000D01*
X146250000Y-104425000D02*
X146750000Y-104425000D01*
X146750000Y-103375000D02*
X146250000Y-103375000D01*
X146250000Y-108425000D02*
X146750000Y-108425000D01*
X146750000Y-107375000D02*
X146250000Y-107375000D01*
X146250000Y-110425000D02*
X146750000Y-110425000D01*
X146750000Y-109375000D02*
X146250000Y-109375000D01*
X146250000Y-112425000D02*
X146750000Y-112425000D01*
X146750000Y-111375000D02*
X146250000Y-111375000D01*
X146250000Y-114425000D02*
X146750000Y-114425000D01*
X146750000Y-113375000D02*
X146250000Y-113375000D01*
X146250000Y-116425000D02*
X146750000Y-116425000D01*
X146750000Y-115375000D02*
X146250000Y-115375000D01*
X146750000Y-105375000D02*
X146250000Y-105375000D01*
X146250000Y-106425000D02*
X146750000Y-106425000D01*
D11*
X138850000Y-127100000D02*
X138850000Y-126800000D01*
X138850000Y-126800000D02*
X135550000Y-126800000D01*
X135550000Y-126800000D02*
X135550000Y-127100000D01*
X138850000Y-129300000D02*
X138850000Y-129600000D01*
X138850000Y-129600000D02*
X135550000Y-129600000D01*
X135550000Y-129600000D02*
X135550000Y-129300000D01*
D12*
X118625000Y-100375000D02*
X118625000Y-100900000D01*
X111375000Y-107625000D02*
X111375000Y-107100000D01*
X118625000Y-107625000D02*
X118625000Y-107100000D01*
X111375000Y-100375000D02*
X111900000Y-100375000D01*
X111375000Y-107625000D02*
X111900000Y-107625000D01*
X118625000Y-107625000D02*
X118100000Y-107625000D01*
X118625000Y-100375000D02*
X118100000Y-100375000D01*
X118825000Y-124175000D02*
X118825000Y-124700000D01*
X111575000Y-131425000D02*
X111575000Y-130900000D01*
X118825000Y-131425000D02*
X118825000Y-130900000D01*
X111575000Y-124175000D02*
X112100000Y-124175000D01*
X111575000Y-131425000D02*
X112100000Y-131425000D01*
X118825000Y-131425000D02*
X118300000Y-131425000D01*
X118825000Y-124175000D02*
X118300000Y-124175000D01*
X128625000Y-109375000D02*
X129150000Y-109375000D01*
X128625000Y-102125000D02*
X129150000Y-102125000D01*
X135875000Y-102125000D02*
X135350000Y-102125000D01*
X135875000Y-109375000D02*
X135350000Y-109375000D01*
X128625000Y-109375000D02*
X128625000Y-108850000D01*
X135875000Y-109375000D02*
X135875000Y-108850000D01*
X135875000Y-102125000D02*
X135875000Y-102650000D01*
X128625000Y-102125000D02*
X128625000Y-102650000D01*
X129150000Y-109375000D02*
X129150000Y-110750000D01*
D11*
X123250000Y-94900000D02*
X123250000Y-91600000D01*
X123250000Y-91600000D02*
X119250000Y-91600000D01*
X137200000Y-113950000D02*
X131300000Y-113950000D01*
X131300000Y-113950000D02*
X131300000Y-117550000D01*
X131300000Y-117550000D02*
X137200000Y-117550000D01*
D12*
X143500000Y-98725000D02*
X144000000Y-98725000D01*
X144000000Y-97775000D02*
X143500000Y-97775000D01*
X144000000Y-92525000D02*
X143500000Y-92525000D01*
X143500000Y-93475000D02*
X144000000Y-93475000D01*
X143500000Y-100475000D02*
X144000000Y-100475000D01*
X144000000Y-99525000D02*
X143500000Y-99525000D01*
D11*
X141250000Y-99470000D02*
X140750000Y-99470000D01*
X140750000Y-100530000D02*
X141250000Y-100530000D01*
D12*
X154599180Y-99600640D02*
X154599180Y-91899360D01*
X155599940Y-99600640D02*
X155599940Y-91899360D01*
X155599940Y-91899360D02*
X146400060Y-91899360D01*
X146400060Y-91899360D02*
X146400060Y-99600640D01*
X146400060Y-99600640D02*
X155599940Y-99600640D01*
X143750000Y-97025000D02*
X144250000Y-97025000D01*
X144250000Y-95975000D02*
X143750000Y-95975000D01*
X143750000Y-95275000D02*
X144250000Y-95275000D01*
X144250000Y-94225000D02*
X143750000Y-94225000D01*
X148330000Y-83490000D02*
X97530000Y-83490000D01*
X100070000Y-88570000D02*
X148330000Y-88570000D01*
X148330000Y-83490000D02*
X148330000Y-88570000D01*
X97530000Y-83490000D02*
X97530000Y-86030000D01*
X97250000Y-87300000D02*
X97250000Y-88850000D01*
X97530000Y-86030000D02*
X100070000Y-86030000D01*
X100070000Y-86030000D02*
X100070000Y-88570000D01*
X97250000Y-88850000D02*
X98800000Y-88850000D01*
X144250000Y-90725000D02*
X143750000Y-90725000D01*
X143750000Y-91775000D02*
X144250000Y-91775000D01*
X128130000Y-124270000D02*
X128130000Y-129350000D01*
X127850000Y-121450000D02*
X129400000Y-121450000D01*
X130670000Y-121730000D02*
X130670000Y-124270000D01*
X130670000Y-124270000D02*
X128130000Y-124270000D01*
X128130000Y-129350000D02*
X133210000Y-129350000D01*
X133210000Y-129350000D02*
X133210000Y-124270000D01*
X127850000Y-121450000D02*
X127850000Y-123000000D01*
X133210000Y-121730000D02*
X130670000Y-121730000D01*
X133210000Y-124270000D02*
X133210000Y-121730000D01*
X146250000Y-118425000D02*
X146750000Y-118425000D01*
X146750000Y-117375000D02*
X146250000Y-117375000D01*
D11*
X128720000Y-116000000D02*
X128720000Y-115500000D01*
X127780000Y-115500000D02*
X127780000Y-116000000D01*
X125000000Y-116100000D02*
X121000000Y-116100000D01*
X125000000Y-119400000D02*
X125000000Y-116100000D01*
X150200000Y-108350000D02*
X148750000Y-108350000D01*
X150200000Y-107450000D02*
X148750000Y-107450000D01*
X150200000Y-108350000D02*
X150200000Y-107450000D01*
X150200000Y-114350000D02*
X150200000Y-113450000D01*
X150200000Y-113450000D02*
X148750000Y-113450000D01*
X150200000Y-114350000D02*
X148750000Y-114350000D01*
X150200000Y-112350000D02*
X148750000Y-112350000D01*
X150200000Y-111450000D02*
X148750000Y-111450000D01*
X150200000Y-112350000D02*
X150200000Y-111450000D01*
X150200000Y-118350000D02*
X148750000Y-118350000D01*
X150200000Y-117450000D02*
X148750000Y-117450000D01*
X150200000Y-118350000D02*
X150200000Y-117450000D01*
X150200000Y-110350000D02*
X150200000Y-109450000D01*
X150200000Y-109450000D02*
X148750000Y-109450000D01*
X150200000Y-110350000D02*
X148750000Y-110350000D01*
X150200000Y-104350000D02*
X150200000Y-103450000D01*
X150200000Y-103450000D02*
X148750000Y-103450000D01*
X150200000Y-104350000D02*
X148750000Y-104350000D01*
X150200000Y-106350000D02*
X150200000Y-105450000D01*
X150200000Y-105450000D02*
X148750000Y-105450000D01*
X150200000Y-106350000D02*
X148750000Y-106350000D01*
X150200000Y-116350000D02*
X148750000Y-116350000D01*
X150200000Y-115450000D02*
X148750000Y-115450000D01*
X150200000Y-116350000D02*
X150200000Y-115450000D01*
X150200000Y-120100000D02*
X148750000Y-120100000D01*
X150200000Y-119200000D02*
X148750000Y-119200000D01*
X150200000Y-120100000D02*
X150200000Y-119200000D01*
X146750000Y-119120000D02*
X146250000Y-119120000D01*
X146250000Y-120180000D02*
X146750000Y-120180000D01*
D12*
X133702380Y-95261904D02*
X134511904Y-95261904D01*
X134607142Y-95214285D01*
X134654761Y-95166666D01*
X134702380Y-95071428D01*
X134702380Y-94880952D01*
X134654761Y-94785714D01*
X134607142Y-94738095D01*
X134511904Y-94690476D01*
X133702380Y-94690476D01*
X134035714Y-93785714D02*
X134702380Y-93785714D01*
X133654761Y-94023809D02*
X134369047Y-94261904D01*
X134369047Y-93642857D01*
D13*
X102416666Y-98178571D02*
X102392857Y-98202380D01*
X102321428Y-98226190D01*
X102273809Y-98226190D01*
X102202380Y-98202380D01*
X102154761Y-98154761D01*
X102130952Y-98107142D01*
X102107142Y-98011904D01*
X102107142Y-97940476D01*
X102130952Y-97845238D01*
X102154761Y-97797619D01*
X102202380Y-97750000D01*
X102273809Y-97726190D01*
X102321428Y-97726190D01*
X102392857Y-97750000D01*
X102416666Y-97773809D01*
X102892857Y-98226190D02*
X102607142Y-98226190D01*
X102750000Y-98226190D02*
X102750000Y-97726190D01*
X102702380Y-97797619D01*
X102654761Y-97845238D01*
X102607142Y-97869047D01*
D12*
X102333333Y-131307142D02*
X102285714Y-131354761D01*
X102142857Y-131402380D01*
X102047619Y-131402380D01*
X101904761Y-131354761D01*
X101809523Y-131259523D01*
X101761904Y-131164285D01*
X101714285Y-130973809D01*
X101714285Y-130830952D01*
X101761904Y-130640476D01*
X101809523Y-130545238D01*
X101904761Y-130450000D01*
X102047619Y-130402380D01*
X102142857Y-130402380D01*
X102285714Y-130450000D01*
X102333333Y-130497619D01*
X102714285Y-130497619D02*
X102761904Y-130450000D01*
X102857142Y-130402380D01*
X103095238Y-130402380D01*
X103190476Y-130450000D01*
X103238095Y-130497619D01*
X103285714Y-130592857D01*
X103285714Y-130688095D01*
X103238095Y-130830952D01*
X102666666Y-131402380D01*
X103285714Y-131402380D01*
D13*
X107678571Y-96833333D02*
X107702380Y-96857142D01*
X107726190Y-96928571D01*
X107726190Y-96976190D01*
X107702380Y-97047619D01*
X107654761Y-97095238D01*
X107607142Y-97119047D01*
X107511904Y-97142857D01*
X107440476Y-97142857D01*
X107345238Y-97119047D01*
X107297619Y-97095238D01*
X107250000Y-97047619D01*
X107226190Y-96976190D01*
X107226190Y-96928571D01*
X107250000Y-96857142D01*
X107273809Y-96833333D01*
X107226190Y-96666666D02*
X107226190Y-96357142D01*
X107416666Y-96523809D01*
X107416666Y-96452380D01*
X107440476Y-96404761D01*
X107464285Y-96380952D01*
X107511904Y-96357142D01*
X107630952Y-96357142D01*
X107678571Y-96380952D01*
X107702380Y-96404761D01*
X107726190Y-96452380D01*
X107726190Y-96595238D01*
X107702380Y-96642857D01*
X107678571Y-96666666D01*
D12*
X102833333Y-120357142D02*
X102785714Y-120404761D01*
X102642857Y-120452380D01*
X102547619Y-120452380D01*
X102404761Y-120404761D01*
X102309523Y-120309523D01*
X102261904Y-120214285D01*
X102214285Y-120023809D01*
X102214285Y-119880952D01*
X102261904Y-119690476D01*
X102309523Y-119595238D01*
X102404761Y-119500000D01*
X102547619Y-119452380D01*
X102642857Y-119452380D01*
X102785714Y-119500000D01*
X102833333Y-119547619D01*
X103690476Y-119785714D02*
X103690476Y-120452380D01*
X103452380Y-119404761D02*
X103214285Y-120119047D01*
X103833333Y-120119047D01*
D13*
X107678571Y-95083333D02*
X107702380Y-95107142D01*
X107726190Y-95178571D01*
X107726190Y-95226190D01*
X107702380Y-95297619D01*
X107654761Y-95345238D01*
X107607142Y-95369047D01*
X107511904Y-95392857D01*
X107440476Y-95392857D01*
X107345238Y-95369047D01*
X107297619Y-95345238D01*
X107250000Y-95297619D01*
X107226190Y-95226190D01*
X107226190Y-95178571D01*
X107250000Y-95107142D01*
X107273809Y-95083333D01*
X107226190Y-94630952D02*
X107226190Y-94869047D01*
X107464285Y-94892857D01*
X107440476Y-94869047D01*
X107416666Y-94821428D01*
X107416666Y-94702380D01*
X107440476Y-94654761D01*
X107464285Y-94630952D01*
X107511904Y-94607142D01*
X107630952Y-94607142D01*
X107678571Y-94630952D01*
X107702380Y-94654761D01*
X107726190Y-94702380D01*
X107726190Y-94821428D01*
X107702380Y-94869047D01*
X107678571Y-94892857D01*
D12*
X107833333Y-100607142D02*
X107785714Y-100654761D01*
X107642857Y-100702380D01*
X107547619Y-100702380D01*
X107404761Y-100654761D01*
X107309523Y-100559523D01*
X107261904Y-100464285D01*
X107214285Y-100273809D01*
X107214285Y-100130952D01*
X107261904Y-99940476D01*
X107309523Y-99845238D01*
X107404761Y-99750000D01*
X107547619Y-99702380D01*
X107642857Y-99702380D01*
X107785714Y-99750000D01*
X107833333Y-99797619D01*
X108690476Y-99702380D02*
X108500000Y-99702380D01*
X108404761Y-99750000D01*
X108357142Y-99797619D01*
X108261904Y-99940476D01*
X108214285Y-100130952D01*
X108214285Y-100511904D01*
X108261904Y-100607142D01*
X108309523Y-100654761D01*
X108404761Y-100702380D01*
X108595238Y-100702380D01*
X108690476Y-100654761D01*
X108738095Y-100607142D01*
X108785714Y-100511904D01*
X108785714Y-100273809D01*
X108738095Y-100178571D01*
X108690476Y-100130952D01*
X108595238Y-100083333D01*
X108404761Y-100083333D01*
X108309523Y-100130952D01*
X108261904Y-100178571D01*
X108214285Y-100273809D01*
X107833333Y-102357142D02*
X107785714Y-102404761D01*
X107642857Y-102452380D01*
X107547619Y-102452380D01*
X107404761Y-102404761D01*
X107309523Y-102309523D01*
X107261904Y-102214285D01*
X107214285Y-102023809D01*
X107214285Y-101880952D01*
X107261904Y-101690476D01*
X107309523Y-101595238D01*
X107404761Y-101500000D01*
X107547619Y-101452380D01*
X107642857Y-101452380D01*
X107785714Y-101500000D01*
X107833333Y-101547619D01*
X108166666Y-101452380D02*
X108833333Y-101452380D01*
X108404761Y-102452380D01*
X102833333Y-118607142D02*
X102785714Y-118654761D01*
X102642857Y-118702380D01*
X102547619Y-118702380D01*
X102404761Y-118654761D01*
X102309523Y-118559523D01*
X102261904Y-118464285D01*
X102214285Y-118273809D01*
X102214285Y-118130952D01*
X102261904Y-117940476D01*
X102309523Y-117845238D01*
X102404761Y-117750000D01*
X102547619Y-117702380D01*
X102642857Y-117702380D01*
X102785714Y-117750000D01*
X102833333Y-117797619D01*
X103404761Y-118130952D02*
X103309523Y-118083333D01*
X103261904Y-118035714D01*
X103214285Y-117940476D01*
X103214285Y-117892857D01*
X103261904Y-117797619D01*
X103309523Y-117750000D01*
X103404761Y-117702380D01*
X103595238Y-117702380D01*
X103690476Y-117750000D01*
X103738095Y-117797619D01*
X103785714Y-117892857D01*
X103785714Y-117940476D01*
X103738095Y-118035714D01*
X103690476Y-118083333D01*
X103595238Y-118130952D01*
X103404761Y-118130952D01*
X103309523Y-118178571D01*
X103261904Y-118226190D01*
X103214285Y-118321428D01*
X103214285Y-118511904D01*
X103261904Y-118607142D01*
X103309523Y-118654761D01*
X103404761Y-118702380D01*
X103595238Y-118702380D01*
X103690476Y-118654761D01*
X103738095Y-118607142D01*
X103785714Y-118511904D01*
X103785714Y-118321428D01*
X103738095Y-118226190D01*
X103690476Y-118178571D01*
X103595238Y-118130952D01*
X107833333Y-123857142D02*
X107785714Y-123904761D01*
X107642857Y-123952380D01*
X107547619Y-123952380D01*
X107404761Y-123904761D01*
X107309523Y-123809523D01*
X107261904Y-123714285D01*
X107214285Y-123523809D01*
X107214285Y-123380952D01*
X107261904Y-123190476D01*
X107309523Y-123095238D01*
X107404761Y-123000000D01*
X107547619Y-122952380D01*
X107642857Y-122952380D01*
X107785714Y-123000000D01*
X107833333Y-123047619D01*
X108309523Y-123952380D02*
X108500000Y-123952380D01*
X108595238Y-123904761D01*
X108642857Y-123857142D01*
X108738095Y-123714285D01*
X108785714Y-123523809D01*
X108785714Y-123142857D01*
X108738095Y-123047619D01*
X108690476Y-123000000D01*
X108595238Y-122952380D01*
X108404761Y-122952380D01*
X108309523Y-123000000D01*
X108261904Y-123047619D01*
X108214285Y-123142857D01*
X108214285Y-123380952D01*
X108261904Y-123476190D01*
X108309523Y-123523809D01*
X108404761Y-123571428D01*
X108595238Y-123571428D01*
X108690476Y-123523809D01*
X108738095Y-123476190D01*
X108785714Y-123380952D01*
X107857142Y-125857142D02*
X107809523Y-125904761D01*
X107666666Y-125952380D01*
X107571428Y-125952380D01*
X107428571Y-125904761D01*
X107333333Y-125809523D01*
X107285714Y-125714285D01*
X107238095Y-125523809D01*
X107238095Y-125380952D01*
X107285714Y-125190476D01*
X107333333Y-125095238D01*
X107428571Y-125000000D01*
X107571428Y-124952380D01*
X107666666Y-124952380D01*
X107809523Y-125000000D01*
X107857142Y-125047619D01*
X108809523Y-125952380D02*
X108238095Y-125952380D01*
X108523809Y-125952380D02*
X108523809Y-124952380D01*
X108428571Y-125095238D01*
X108333333Y-125190476D01*
X108238095Y-125238095D01*
X109428571Y-124952380D02*
X109523809Y-124952380D01*
X109619047Y-125000000D01*
X109666666Y-125047619D01*
X109714285Y-125142857D01*
X109761904Y-125333333D01*
X109761904Y-125571428D01*
X109714285Y-125761904D01*
X109666666Y-125857142D01*
X109619047Y-125904761D01*
X109523809Y-125952380D01*
X109428571Y-125952380D01*
X109333333Y-125904761D01*
X109285714Y-125857142D01*
X109238095Y-125761904D01*
X109190476Y-125571428D01*
X109190476Y-125333333D01*
X109238095Y-125142857D01*
X109285714Y-125047619D01*
X109333333Y-125000000D01*
X109428571Y-124952380D01*
X107857142Y-105857142D02*
X107809523Y-105904761D01*
X107666666Y-105952380D01*
X107571428Y-105952380D01*
X107428571Y-105904761D01*
X107333333Y-105809523D01*
X107285714Y-105714285D01*
X107238095Y-105523809D01*
X107238095Y-105380952D01*
X107285714Y-105190476D01*
X107333333Y-105095238D01*
X107428571Y-105000000D01*
X107571428Y-104952380D01*
X107666666Y-104952380D01*
X107809523Y-105000000D01*
X107857142Y-105047619D01*
X108809523Y-105952380D02*
X108238095Y-105952380D01*
X108523809Y-105952380D02*
X108523809Y-104952380D01*
X108428571Y-105095238D01*
X108333333Y-105190476D01*
X108238095Y-105238095D01*
X109761904Y-105952380D02*
X109190476Y-105952380D01*
X109476190Y-105952380D02*
X109476190Y-104952380D01*
X109380952Y-105095238D01*
X109285714Y-105190476D01*
X109190476Y-105238095D01*
X107857142Y-129607142D02*
X107809523Y-129654761D01*
X107666666Y-129702380D01*
X107571428Y-129702380D01*
X107428571Y-129654761D01*
X107333333Y-129559523D01*
X107285714Y-129464285D01*
X107238095Y-129273809D01*
X107238095Y-129130952D01*
X107285714Y-128940476D01*
X107333333Y-128845238D01*
X107428571Y-128750000D01*
X107571428Y-128702380D01*
X107666666Y-128702380D01*
X107809523Y-128750000D01*
X107857142Y-128797619D01*
X108809523Y-129702380D02*
X108238095Y-129702380D01*
X108523809Y-129702380D02*
X108523809Y-128702380D01*
X108428571Y-128845238D01*
X108333333Y-128940476D01*
X108238095Y-128988095D01*
X109190476Y-128797619D02*
X109238095Y-128750000D01*
X109333333Y-128702380D01*
X109571428Y-128702380D01*
X109666666Y-128750000D01*
X109714285Y-128797619D01*
X109761904Y-128892857D01*
X109761904Y-128988095D01*
X109714285Y-129130952D01*
X109142857Y-129702380D01*
X109761904Y-129702380D01*
D13*
X107678571Y-93571428D02*
X107702380Y-93595238D01*
X107726190Y-93666666D01*
X107726190Y-93714285D01*
X107702380Y-93785714D01*
X107654761Y-93833333D01*
X107607142Y-93857142D01*
X107511904Y-93880952D01*
X107440476Y-93880952D01*
X107345238Y-93857142D01*
X107297619Y-93833333D01*
X107250000Y-93785714D01*
X107226190Y-93714285D01*
X107226190Y-93666666D01*
X107250000Y-93595238D01*
X107273809Y-93571428D01*
X107726190Y-93095238D02*
X107726190Y-93380952D01*
X107726190Y-93238095D02*
X107226190Y-93238095D01*
X107297619Y-93285714D01*
X107345238Y-93333333D01*
X107369047Y-93380952D01*
X107226190Y-92928571D02*
X107226190Y-92619047D01*
X107416666Y-92785714D01*
X107416666Y-92714285D01*
X107440476Y-92666666D01*
X107464285Y-92642857D01*
X107511904Y-92619047D01*
X107630952Y-92619047D01*
X107678571Y-92642857D01*
X107702380Y-92666666D01*
X107726190Y-92714285D01*
X107726190Y-92857142D01*
X107702380Y-92904761D01*
X107678571Y-92928571D01*
D12*
X101957142Y-116857142D02*
X101909523Y-116904761D01*
X101766666Y-116952380D01*
X101671428Y-116952380D01*
X101528571Y-116904761D01*
X101433333Y-116809523D01*
X101385714Y-116714285D01*
X101338095Y-116523809D01*
X101338095Y-116380952D01*
X101385714Y-116190476D01*
X101433333Y-116095238D01*
X101528571Y-116000000D01*
X101671428Y-115952380D01*
X101766666Y-115952380D01*
X101909523Y-116000000D01*
X101957142Y-116047619D01*
X102909523Y-116952380D02*
X102338095Y-116952380D01*
X102623809Y-116952380D02*
X102623809Y-115952380D01*
X102528571Y-116095238D01*
X102433333Y-116190476D01*
X102338095Y-116238095D01*
X103766666Y-116285714D02*
X103766666Y-116952380D01*
X103528571Y-115904761D02*
X103290476Y-116619047D01*
X103909523Y-116619047D01*
X107857142Y-109357142D02*
X107809523Y-109404761D01*
X107666666Y-109452380D01*
X107571428Y-109452380D01*
X107428571Y-109404761D01*
X107333333Y-109309523D01*
X107285714Y-109214285D01*
X107238095Y-109023809D01*
X107238095Y-108880952D01*
X107285714Y-108690476D01*
X107333333Y-108595238D01*
X107428571Y-108500000D01*
X107571428Y-108452380D01*
X107666666Y-108452380D01*
X107809523Y-108500000D01*
X107857142Y-108547619D01*
X108809523Y-109452380D02*
X108238095Y-109452380D01*
X108523809Y-109452380D02*
X108523809Y-108452380D01*
X108428571Y-108595238D01*
X108333333Y-108690476D01*
X108238095Y-108738095D01*
X109714285Y-108452380D02*
X109238095Y-108452380D01*
X109190476Y-108928571D01*
X109238095Y-108880952D01*
X109333333Y-108833333D01*
X109571428Y-108833333D01*
X109666666Y-108880952D01*
X109714285Y-108928571D01*
X109761904Y-109023809D01*
X109761904Y-109261904D01*
X109714285Y-109357142D01*
X109666666Y-109404761D01*
X109571428Y-109452380D01*
X109333333Y-109452380D01*
X109238095Y-109404761D01*
X109190476Y-109357142D01*
X107857142Y-133107142D02*
X107809523Y-133154761D01*
X107666666Y-133202380D01*
X107571428Y-133202380D01*
X107428571Y-133154761D01*
X107333333Y-133059523D01*
X107285714Y-132964285D01*
X107238095Y-132773809D01*
X107238095Y-132630952D01*
X107285714Y-132440476D01*
X107333333Y-132345238D01*
X107428571Y-132250000D01*
X107571428Y-132202380D01*
X107666666Y-132202380D01*
X107809523Y-132250000D01*
X107857142Y-132297619D01*
X108809523Y-133202380D02*
X108238095Y-133202380D01*
X108523809Y-133202380D02*
X108523809Y-132202380D01*
X108428571Y-132345238D01*
X108333333Y-132440476D01*
X108238095Y-132488095D01*
X109666666Y-132202380D02*
X109476190Y-132202380D01*
X109380952Y-132250000D01*
X109333333Y-132297619D01*
X109238095Y-132440476D01*
X109190476Y-132630952D01*
X109190476Y-133011904D01*
X109238095Y-133107142D01*
X109285714Y-133154761D01*
X109380952Y-133202380D01*
X109571428Y-133202380D01*
X109666666Y-133154761D01*
X109714285Y-133107142D01*
X109761904Y-133011904D01*
X109761904Y-132773809D01*
X109714285Y-132678571D01*
X109666666Y-132630952D01*
X109571428Y-132583333D01*
X109380952Y-132583333D01*
X109285714Y-132630952D01*
X109238095Y-132678571D01*
X109190476Y-132773809D01*
X101857142Y-91857142D02*
X101809523Y-91904761D01*
X101666666Y-91952380D01*
X101571428Y-91952380D01*
X101428571Y-91904761D01*
X101333333Y-91809523D01*
X101285714Y-91714285D01*
X101238095Y-91523809D01*
X101238095Y-91380952D01*
X101285714Y-91190476D01*
X101333333Y-91095238D01*
X101428571Y-91000000D01*
X101571428Y-90952380D01*
X101666666Y-90952380D01*
X101809523Y-91000000D01*
X101857142Y-91047619D01*
X102809523Y-91952380D02*
X102238095Y-91952380D01*
X102523809Y-91952380D02*
X102523809Y-90952380D01*
X102428571Y-91095238D01*
X102333333Y-91190476D01*
X102238095Y-91238095D01*
X103142857Y-90952380D02*
X103809523Y-90952380D01*
X103380952Y-91952380D01*
D13*
X110478571Y-120178571D02*
X110454761Y-120202380D01*
X110383333Y-120226190D01*
X110335714Y-120226190D01*
X110264285Y-120202380D01*
X110216666Y-120154761D01*
X110192857Y-120107142D01*
X110169047Y-120011904D01*
X110169047Y-119940476D01*
X110192857Y-119845238D01*
X110216666Y-119797619D01*
X110264285Y-119750000D01*
X110335714Y-119726190D01*
X110383333Y-119726190D01*
X110454761Y-119750000D01*
X110478571Y-119773809D01*
X110954761Y-120226190D02*
X110669047Y-120226190D01*
X110811904Y-120226190D02*
X110811904Y-119726190D01*
X110764285Y-119797619D01*
X110716666Y-119845238D01*
X110669047Y-119869047D01*
X111240476Y-119940476D02*
X111192857Y-119916666D01*
X111169047Y-119892857D01*
X111145238Y-119845238D01*
X111145238Y-119821428D01*
X111169047Y-119773809D01*
X111192857Y-119750000D01*
X111240476Y-119726190D01*
X111335714Y-119726190D01*
X111383333Y-119750000D01*
X111407142Y-119773809D01*
X111430952Y-119821428D01*
X111430952Y-119845238D01*
X111407142Y-119892857D01*
X111383333Y-119916666D01*
X111335714Y-119940476D01*
X111240476Y-119940476D01*
X111192857Y-119964285D01*
X111169047Y-119988095D01*
X111145238Y-120035714D01*
X111145238Y-120130952D01*
X111169047Y-120178571D01*
X111192857Y-120202380D01*
X111240476Y-120226190D01*
X111335714Y-120226190D01*
X111383333Y-120202380D01*
X111407142Y-120178571D01*
X111430952Y-120130952D01*
X111430952Y-120035714D01*
X111407142Y-119988095D01*
X111383333Y-119964285D01*
X111335714Y-119940476D01*
D12*
X107857142Y-112857142D02*
X107809523Y-112904761D01*
X107666666Y-112952380D01*
X107571428Y-112952380D01*
X107428571Y-112904761D01*
X107333333Y-112809523D01*
X107285714Y-112714285D01*
X107238095Y-112523809D01*
X107238095Y-112380952D01*
X107285714Y-112190476D01*
X107333333Y-112095238D01*
X107428571Y-112000000D01*
X107571428Y-111952380D01*
X107666666Y-111952380D01*
X107809523Y-112000000D01*
X107857142Y-112047619D01*
X108809523Y-112952380D02*
X108238095Y-112952380D01*
X108523809Y-112952380D02*
X108523809Y-111952380D01*
X108428571Y-112095238D01*
X108333333Y-112190476D01*
X108238095Y-112238095D01*
X109285714Y-112952380D02*
X109476190Y-112952380D01*
X109571428Y-112904761D01*
X109619047Y-112857142D01*
X109714285Y-112714285D01*
X109761904Y-112523809D01*
X109761904Y-112142857D01*
X109714285Y-112047619D01*
X109666666Y-112000000D01*
X109571428Y-111952380D01*
X109380952Y-111952380D01*
X109285714Y-112000000D01*
X109238095Y-112047619D01*
X109190476Y-112142857D01*
X109190476Y-112380952D01*
X109238095Y-112476190D01*
X109285714Y-112523809D01*
X109380952Y-112571428D01*
X109571428Y-112571428D01*
X109666666Y-112523809D01*
X109714285Y-112476190D01*
X109761904Y-112380952D01*
X107857142Y-136607142D02*
X107809523Y-136654761D01*
X107666666Y-136702380D01*
X107571428Y-136702380D01*
X107428571Y-136654761D01*
X107333333Y-136559523D01*
X107285714Y-136464285D01*
X107238095Y-136273809D01*
X107238095Y-136130952D01*
X107285714Y-135940476D01*
X107333333Y-135845238D01*
X107428571Y-135750000D01*
X107571428Y-135702380D01*
X107666666Y-135702380D01*
X107809523Y-135750000D01*
X107857142Y-135797619D01*
X108238095Y-135797619D02*
X108285714Y-135750000D01*
X108380952Y-135702380D01*
X108619047Y-135702380D01*
X108714285Y-135750000D01*
X108761904Y-135797619D01*
X108809523Y-135892857D01*
X108809523Y-135988095D01*
X108761904Y-136130952D01*
X108190476Y-136702380D01*
X108809523Y-136702380D01*
X109428571Y-135702380D02*
X109523809Y-135702380D01*
X109619047Y-135750000D01*
X109666666Y-135797619D01*
X109714285Y-135892857D01*
X109761904Y-136083333D01*
X109761904Y-136321428D01*
X109714285Y-136511904D01*
X109666666Y-136607142D01*
X109619047Y-136654761D01*
X109523809Y-136702380D01*
X109428571Y-136702380D01*
X109333333Y-136654761D01*
X109285714Y-136607142D01*
X109238095Y-136511904D01*
X109190476Y-136321428D01*
X109190476Y-136083333D01*
X109238095Y-135892857D01*
X109285714Y-135797619D01*
X109333333Y-135750000D01*
X109428571Y-135702380D01*
D13*
X111178571Y-91821428D02*
X111202380Y-91845238D01*
X111226190Y-91916666D01*
X111226190Y-91964285D01*
X111202380Y-92035714D01*
X111154761Y-92083333D01*
X111107142Y-92107142D01*
X111011904Y-92130952D01*
X110940476Y-92130952D01*
X110845238Y-92107142D01*
X110797619Y-92083333D01*
X110750000Y-92035714D01*
X110726190Y-91964285D01*
X110726190Y-91916666D01*
X110750000Y-91845238D01*
X110773809Y-91821428D01*
X110773809Y-91630952D02*
X110750000Y-91607142D01*
X110726190Y-91559523D01*
X110726190Y-91440476D01*
X110750000Y-91392857D01*
X110773809Y-91369047D01*
X110821428Y-91345238D01*
X110869047Y-91345238D01*
X110940476Y-91369047D01*
X111226190Y-91654761D01*
X111226190Y-91345238D01*
X111226190Y-90869047D02*
X111226190Y-91154761D01*
X111226190Y-91011904D02*
X110726190Y-91011904D01*
X110797619Y-91059523D01*
X110845238Y-91107142D01*
X110869047Y-91154761D01*
D12*
X113607142Y-112892857D02*
X113654761Y-112940476D01*
X113702380Y-113083333D01*
X113702380Y-113178571D01*
X113654761Y-113321428D01*
X113559523Y-113416666D01*
X113464285Y-113464285D01*
X113273809Y-113511904D01*
X113130952Y-113511904D01*
X112940476Y-113464285D01*
X112845238Y-113416666D01*
X112750000Y-113321428D01*
X112702380Y-113178571D01*
X112702380Y-113083333D01*
X112750000Y-112940476D01*
X112797619Y-112892857D01*
X112797619Y-112511904D02*
X112750000Y-112464285D01*
X112702380Y-112369047D01*
X112702380Y-112130952D01*
X112750000Y-112035714D01*
X112797619Y-111988095D01*
X112892857Y-111940476D01*
X112988095Y-111940476D01*
X113130952Y-111988095D01*
X113702380Y-112559523D01*
X113702380Y-111940476D01*
X112797619Y-111559523D02*
X112750000Y-111511904D01*
X112702380Y-111416666D01*
X112702380Y-111178571D01*
X112750000Y-111083333D01*
X112797619Y-111035714D01*
X112892857Y-110988095D01*
X112988095Y-110988095D01*
X113130952Y-111035714D01*
X113702380Y-111607142D01*
X113702380Y-110988095D01*
D13*
X109928571Y-95678571D02*
X109904761Y-95702380D01*
X109833333Y-95726190D01*
X109785714Y-95726190D01*
X109714285Y-95702380D01*
X109666666Y-95654761D01*
X109642857Y-95607142D01*
X109619047Y-95511904D01*
X109619047Y-95440476D01*
X109642857Y-95345238D01*
X109666666Y-95297619D01*
X109714285Y-95250000D01*
X109785714Y-95226190D01*
X109833333Y-95226190D01*
X109904761Y-95250000D01*
X109928571Y-95273809D01*
X110119047Y-95273809D02*
X110142857Y-95250000D01*
X110190476Y-95226190D01*
X110309523Y-95226190D01*
X110357142Y-95250000D01*
X110380952Y-95273809D01*
X110404761Y-95321428D01*
X110404761Y-95369047D01*
X110380952Y-95440476D01*
X110095238Y-95726190D01*
X110404761Y-95726190D01*
X110571428Y-95226190D02*
X110880952Y-95226190D01*
X110714285Y-95416666D01*
X110785714Y-95416666D01*
X110833333Y-95440476D01*
X110857142Y-95464285D01*
X110880952Y-95511904D01*
X110880952Y-95630952D01*
X110857142Y-95678571D01*
X110833333Y-95702380D01*
X110785714Y-95726190D01*
X110642857Y-95726190D01*
X110595238Y-95702380D01*
X110571428Y-95678571D01*
X110428571Y-118428571D02*
X110404761Y-118452380D01*
X110333333Y-118476190D01*
X110285714Y-118476190D01*
X110214285Y-118452380D01*
X110166666Y-118404761D01*
X110142857Y-118357142D01*
X110119047Y-118261904D01*
X110119047Y-118190476D01*
X110142857Y-118095238D01*
X110166666Y-118047619D01*
X110214285Y-118000000D01*
X110285714Y-117976190D01*
X110333333Y-117976190D01*
X110404761Y-118000000D01*
X110428571Y-118023809D01*
X110619047Y-118023809D02*
X110642857Y-118000000D01*
X110690476Y-117976190D01*
X110809523Y-117976190D01*
X110857142Y-118000000D01*
X110880952Y-118023809D01*
X110904761Y-118071428D01*
X110904761Y-118119047D01*
X110880952Y-118190476D01*
X110595238Y-118476190D01*
X110904761Y-118476190D01*
X111333333Y-118142857D02*
X111333333Y-118476190D01*
X111214285Y-117952380D02*
X111095238Y-118309523D01*
X111404761Y-118309523D01*
X114178571Y-89821428D02*
X114202380Y-89845238D01*
X114226190Y-89916666D01*
X114226190Y-89964285D01*
X114202380Y-90035714D01*
X114154761Y-90083333D01*
X114107142Y-90107142D01*
X114011904Y-90130952D01*
X113940476Y-90130952D01*
X113845238Y-90107142D01*
X113797619Y-90083333D01*
X113750000Y-90035714D01*
X113726190Y-89964285D01*
X113726190Y-89916666D01*
X113750000Y-89845238D01*
X113773809Y-89821428D01*
X113773809Y-89630952D02*
X113750000Y-89607142D01*
X113726190Y-89559523D01*
X113726190Y-89440476D01*
X113750000Y-89392857D01*
X113773809Y-89369047D01*
X113821428Y-89345238D01*
X113869047Y-89345238D01*
X113940476Y-89369047D01*
X114226190Y-89654761D01*
X114226190Y-89345238D01*
X113726190Y-88892857D02*
X113726190Y-89130952D01*
X113964285Y-89154761D01*
X113940476Y-89130952D01*
X113916666Y-89083333D01*
X113916666Y-88964285D01*
X113940476Y-88916666D01*
X113964285Y-88892857D01*
X114011904Y-88869047D01*
X114130952Y-88869047D01*
X114178571Y-88892857D01*
X114202380Y-88916666D01*
X114226190Y-88964285D01*
X114226190Y-89083333D01*
X114202380Y-89130952D01*
X114178571Y-89154761D01*
D12*
X115357142Y-112892857D02*
X115404761Y-112940476D01*
X115452380Y-113083333D01*
X115452380Y-113178571D01*
X115404761Y-113321428D01*
X115309523Y-113416666D01*
X115214285Y-113464285D01*
X115023809Y-113511904D01*
X114880952Y-113511904D01*
X114690476Y-113464285D01*
X114595238Y-113416666D01*
X114500000Y-113321428D01*
X114452380Y-113178571D01*
X114452380Y-113083333D01*
X114500000Y-112940476D01*
X114547619Y-112892857D01*
X114547619Y-112511904D02*
X114500000Y-112464285D01*
X114452380Y-112369047D01*
X114452380Y-112130952D01*
X114500000Y-112035714D01*
X114547619Y-111988095D01*
X114642857Y-111940476D01*
X114738095Y-111940476D01*
X114880952Y-111988095D01*
X115452380Y-112559523D01*
X115452380Y-111940476D01*
X114452380Y-111083333D02*
X114452380Y-111273809D01*
X114500000Y-111369047D01*
X114547619Y-111416666D01*
X114690476Y-111511904D01*
X114880952Y-111559523D01*
X115261904Y-111559523D01*
X115357142Y-111511904D01*
X115404761Y-111464285D01*
X115452380Y-111369047D01*
X115452380Y-111178571D01*
X115404761Y-111083333D01*
X115357142Y-111035714D01*
X115261904Y-110988095D01*
X115023809Y-110988095D01*
X114928571Y-111035714D01*
X114880952Y-111083333D01*
X114833333Y-111178571D01*
X114833333Y-111369047D01*
X114880952Y-111464285D01*
X114928571Y-111511904D01*
X115023809Y-111559523D01*
X116357142Y-95142857D02*
X116404761Y-95190476D01*
X116452380Y-95333333D01*
X116452380Y-95428571D01*
X116404761Y-95571428D01*
X116309523Y-95666666D01*
X116214285Y-95714285D01*
X116023809Y-95761904D01*
X115880952Y-95761904D01*
X115690476Y-95714285D01*
X115595238Y-95666666D01*
X115500000Y-95571428D01*
X115452380Y-95428571D01*
X115452380Y-95333333D01*
X115500000Y-95190476D01*
X115547619Y-95142857D01*
X115547619Y-94761904D02*
X115500000Y-94714285D01*
X115452380Y-94619047D01*
X115452380Y-94380952D01*
X115500000Y-94285714D01*
X115547619Y-94238095D01*
X115642857Y-94190476D01*
X115738095Y-94190476D01*
X115880952Y-94238095D01*
X116452380Y-94809523D01*
X116452380Y-94190476D01*
X115452380Y-93857142D02*
X115452380Y-93190476D01*
X116452380Y-93619047D01*
X117107142Y-121642857D02*
X117154761Y-121690476D01*
X117202380Y-121833333D01*
X117202380Y-121928571D01*
X117154761Y-122071428D01*
X117059523Y-122166666D01*
X116964285Y-122214285D01*
X116773809Y-122261904D01*
X116630952Y-122261904D01*
X116440476Y-122214285D01*
X116345238Y-122166666D01*
X116250000Y-122071428D01*
X116202380Y-121928571D01*
X116202380Y-121833333D01*
X116250000Y-121690476D01*
X116297619Y-121642857D01*
X116297619Y-121261904D02*
X116250000Y-121214285D01*
X116202380Y-121119047D01*
X116202380Y-120880952D01*
X116250000Y-120785714D01*
X116297619Y-120738095D01*
X116392857Y-120690476D01*
X116488095Y-120690476D01*
X116630952Y-120738095D01*
X117202380Y-121309523D01*
X117202380Y-120690476D01*
X116630952Y-120119047D02*
X116583333Y-120214285D01*
X116535714Y-120261904D01*
X116440476Y-120309523D01*
X116392857Y-120309523D01*
X116297619Y-120261904D01*
X116250000Y-120214285D01*
X116202380Y-120119047D01*
X116202380Y-119928571D01*
X116250000Y-119833333D01*
X116297619Y-119785714D01*
X116392857Y-119738095D01*
X116440476Y-119738095D01*
X116535714Y-119785714D01*
X116583333Y-119833333D01*
X116630952Y-119928571D01*
X116630952Y-120119047D01*
X116678571Y-120214285D01*
X116726190Y-120261904D01*
X116821428Y-120309523D01*
X117011904Y-120309523D01*
X117107142Y-120261904D01*
X117154761Y-120214285D01*
X117202380Y-120119047D01*
X117202380Y-119928571D01*
X117154761Y-119833333D01*
X117107142Y-119785714D01*
X117011904Y-119738095D01*
X116821428Y-119738095D01*
X116726190Y-119785714D01*
X116678571Y-119833333D01*
X116630952Y-119928571D01*
X118107142Y-95142857D02*
X118154761Y-95190476D01*
X118202380Y-95333333D01*
X118202380Y-95428571D01*
X118154761Y-95571428D01*
X118059523Y-95666666D01*
X117964285Y-95714285D01*
X117773809Y-95761904D01*
X117630952Y-95761904D01*
X117440476Y-95714285D01*
X117345238Y-95666666D01*
X117250000Y-95571428D01*
X117202380Y-95428571D01*
X117202380Y-95333333D01*
X117250000Y-95190476D01*
X117297619Y-95142857D01*
X117297619Y-94761904D02*
X117250000Y-94714285D01*
X117202380Y-94619047D01*
X117202380Y-94380952D01*
X117250000Y-94285714D01*
X117297619Y-94238095D01*
X117392857Y-94190476D01*
X117488095Y-94190476D01*
X117630952Y-94238095D01*
X118202380Y-94809523D01*
X118202380Y-94190476D01*
X118202380Y-93714285D02*
X118202380Y-93523809D01*
X118154761Y-93428571D01*
X118107142Y-93380952D01*
X117964285Y-93285714D01*
X117773809Y-93238095D01*
X117392857Y-93238095D01*
X117297619Y-93285714D01*
X117250000Y-93333333D01*
X117202380Y-93428571D01*
X117202380Y-93619047D01*
X117250000Y-93714285D01*
X117297619Y-93761904D01*
X117392857Y-93809523D01*
X117630952Y-93809523D01*
X117726190Y-93761904D01*
X117773809Y-93714285D01*
X117821428Y-93619047D01*
X117821428Y-93428571D01*
X117773809Y-93333333D01*
X117726190Y-93285714D01*
X117630952Y-93238095D01*
X117107142Y-112892857D02*
X117154761Y-112940476D01*
X117202380Y-113083333D01*
X117202380Y-113178571D01*
X117154761Y-113321428D01*
X117059523Y-113416666D01*
X116964285Y-113464285D01*
X116773809Y-113511904D01*
X116630952Y-113511904D01*
X116440476Y-113464285D01*
X116345238Y-113416666D01*
X116250000Y-113321428D01*
X116202380Y-113178571D01*
X116202380Y-113083333D01*
X116250000Y-112940476D01*
X116297619Y-112892857D01*
X116202380Y-112559523D02*
X116202380Y-111940476D01*
X116583333Y-112273809D01*
X116583333Y-112130952D01*
X116630952Y-112035714D01*
X116678571Y-111988095D01*
X116773809Y-111940476D01*
X117011904Y-111940476D01*
X117107142Y-111988095D01*
X117154761Y-112035714D01*
X117202380Y-112130952D01*
X117202380Y-112416666D01*
X117154761Y-112511904D01*
X117107142Y-112559523D01*
X116202380Y-111321428D02*
X116202380Y-111226190D01*
X116250000Y-111130952D01*
X116297619Y-111083333D01*
X116392857Y-111035714D01*
X116583333Y-110988095D01*
X116821428Y-110988095D01*
X117011904Y-111035714D01*
X117107142Y-111083333D01*
X117154761Y-111130952D01*
X117202380Y-111226190D01*
X117202380Y-111321428D01*
X117154761Y-111416666D01*
X117107142Y-111464285D01*
X117011904Y-111511904D01*
X116821428Y-111559523D01*
X116583333Y-111559523D01*
X116392857Y-111511904D01*
X116297619Y-111464285D01*
X116250000Y-111416666D01*
X116202380Y-111321428D01*
D13*
X122178571Y-97821428D02*
X122202380Y-97845238D01*
X122226190Y-97916666D01*
X122226190Y-97964285D01*
X122202380Y-98035714D01*
X122154761Y-98083333D01*
X122107142Y-98107142D01*
X122011904Y-98130952D01*
X121940476Y-98130952D01*
X121845238Y-98107142D01*
X121797619Y-98083333D01*
X121750000Y-98035714D01*
X121726190Y-97964285D01*
X121726190Y-97916666D01*
X121750000Y-97845238D01*
X121773809Y-97821428D01*
X121726190Y-97654761D02*
X121726190Y-97345238D01*
X121916666Y-97511904D01*
X121916666Y-97440476D01*
X121940476Y-97392857D01*
X121964285Y-97369047D01*
X122011904Y-97345238D01*
X122130952Y-97345238D01*
X122178571Y-97369047D01*
X122202380Y-97392857D01*
X122226190Y-97440476D01*
X122226190Y-97583333D01*
X122202380Y-97630952D01*
X122178571Y-97654761D01*
X122226190Y-96869047D02*
X122226190Y-97154761D01*
X122226190Y-97011904D02*
X121726190Y-97011904D01*
X121797619Y-97059523D01*
X121845238Y-97107142D01*
X121869047Y-97154761D01*
D12*
X118857142Y-112892857D02*
X118904761Y-112940476D01*
X118952380Y-113083333D01*
X118952380Y-113178571D01*
X118904761Y-113321428D01*
X118809523Y-113416666D01*
X118714285Y-113464285D01*
X118523809Y-113511904D01*
X118380952Y-113511904D01*
X118190476Y-113464285D01*
X118095238Y-113416666D01*
X118000000Y-113321428D01*
X117952380Y-113178571D01*
X117952380Y-113083333D01*
X118000000Y-112940476D01*
X118047619Y-112892857D01*
X117952380Y-112559523D02*
X117952380Y-111940476D01*
X118333333Y-112273809D01*
X118333333Y-112130952D01*
X118380952Y-112035714D01*
X118428571Y-111988095D01*
X118523809Y-111940476D01*
X118761904Y-111940476D01*
X118857142Y-111988095D01*
X118904761Y-112035714D01*
X118952380Y-112130952D01*
X118952380Y-112416666D01*
X118904761Y-112511904D01*
X118857142Y-112559523D01*
X118047619Y-111559523D02*
X118000000Y-111511904D01*
X117952380Y-111416666D01*
X117952380Y-111178571D01*
X118000000Y-111083333D01*
X118047619Y-111035714D01*
X118142857Y-110988095D01*
X118238095Y-110988095D01*
X118380952Y-111035714D01*
X118952380Y-111607142D01*
X118952380Y-110988095D01*
X118857142Y-121892857D02*
X118904761Y-121940476D01*
X118952380Y-122083333D01*
X118952380Y-122178571D01*
X118904761Y-122321428D01*
X118809523Y-122416666D01*
X118714285Y-122464285D01*
X118523809Y-122511904D01*
X118380952Y-122511904D01*
X118190476Y-122464285D01*
X118095238Y-122416666D01*
X118000000Y-122321428D01*
X117952380Y-122178571D01*
X117952380Y-122083333D01*
X118000000Y-121940476D01*
X118047619Y-121892857D01*
X117952380Y-121559523D02*
X117952380Y-120940476D01*
X118333333Y-121273809D01*
X118333333Y-121130952D01*
X118380952Y-121035714D01*
X118428571Y-120988095D01*
X118523809Y-120940476D01*
X118761904Y-120940476D01*
X118857142Y-120988095D01*
X118904761Y-121035714D01*
X118952380Y-121130952D01*
X118952380Y-121416666D01*
X118904761Y-121511904D01*
X118857142Y-121559523D01*
X117952380Y-120607142D02*
X117952380Y-119988095D01*
X118333333Y-120321428D01*
X118333333Y-120178571D01*
X118380952Y-120083333D01*
X118428571Y-120035714D01*
X118523809Y-119988095D01*
X118761904Y-119988095D01*
X118857142Y-120035714D01*
X118904761Y-120083333D01*
X118952380Y-120178571D01*
X118952380Y-120464285D01*
X118904761Y-120559523D01*
X118857142Y-120607142D01*
X121307142Y-97642857D02*
X121354761Y-97690476D01*
X121402380Y-97833333D01*
X121402380Y-97928571D01*
X121354761Y-98071428D01*
X121259523Y-98166666D01*
X121164285Y-98214285D01*
X120973809Y-98261904D01*
X120830952Y-98261904D01*
X120640476Y-98214285D01*
X120545238Y-98166666D01*
X120450000Y-98071428D01*
X120402380Y-97928571D01*
X120402380Y-97833333D01*
X120450000Y-97690476D01*
X120497619Y-97642857D01*
X120402380Y-97309523D02*
X120402380Y-96690476D01*
X120783333Y-97023809D01*
X120783333Y-96880952D01*
X120830952Y-96785714D01*
X120878571Y-96738095D01*
X120973809Y-96690476D01*
X121211904Y-96690476D01*
X121307142Y-96738095D01*
X121354761Y-96785714D01*
X121402380Y-96880952D01*
X121402380Y-97166666D01*
X121354761Y-97261904D01*
X121307142Y-97309523D01*
X120735714Y-95833333D02*
X121402380Y-95833333D01*
X120354761Y-96071428D02*
X121069047Y-96309523D01*
X121069047Y-95690476D01*
X123307142Y-112857142D02*
X123259523Y-112904761D01*
X123116666Y-112952380D01*
X123021428Y-112952380D01*
X122878571Y-112904761D01*
X122783333Y-112809523D01*
X122735714Y-112714285D01*
X122688095Y-112523809D01*
X122688095Y-112380952D01*
X122735714Y-112190476D01*
X122783333Y-112095238D01*
X122878571Y-112000000D01*
X123021428Y-111952380D01*
X123116666Y-111952380D01*
X123259523Y-112000000D01*
X123307142Y-112047619D01*
X123640476Y-111952380D02*
X124259523Y-111952380D01*
X123926190Y-112333333D01*
X124069047Y-112333333D01*
X124164285Y-112380952D01*
X124211904Y-112428571D01*
X124259523Y-112523809D01*
X124259523Y-112761904D01*
X124211904Y-112857142D01*
X124164285Y-112904761D01*
X124069047Y-112952380D01*
X123783333Y-112952380D01*
X123688095Y-112904761D01*
X123640476Y-112857142D01*
X125164285Y-111952380D02*
X124688095Y-111952380D01*
X124640476Y-112428571D01*
X124688095Y-112380952D01*
X124783333Y-112333333D01*
X125021428Y-112333333D01*
X125116666Y-112380952D01*
X125164285Y-112428571D01*
X125211904Y-112523809D01*
X125211904Y-112761904D01*
X125164285Y-112857142D01*
X125116666Y-112904761D01*
X125021428Y-112952380D01*
X124783333Y-112952380D01*
X124688095Y-112904761D01*
X124640476Y-112857142D01*
X120757142Y-130357142D02*
X120709523Y-130404761D01*
X120566666Y-130452380D01*
X120471428Y-130452380D01*
X120328571Y-130404761D01*
X120233333Y-130309523D01*
X120185714Y-130214285D01*
X120138095Y-130023809D01*
X120138095Y-129880952D01*
X120185714Y-129690476D01*
X120233333Y-129595238D01*
X120328571Y-129500000D01*
X120471428Y-129452380D01*
X120566666Y-129452380D01*
X120709523Y-129500000D01*
X120757142Y-129547619D01*
X121090476Y-129452380D02*
X121709523Y-129452380D01*
X121376190Y-129833333D01*
X121519047Y-129833333D01*
X121614285Y-129880952D01*
X121661904Y-129928571D01*
X121709523Y-130023809D01*
X121709523Y-130261904D01*
X121661904Y-130357142D01*
X121614285Y-130404761D01*
X121519047Y-130452380D01*
X121233333Y-130452380D01*
X121138095Y-130404761D01*
X121090476Y-130357142D01*
X122566666Y-129452380D02*
X122376190Y-129452380D01*
X122280952Y-129500000D01*
X122233333Y-129547619D01*
X122138095Y-129690476D01*
X122090476Y-129880952D01*
X122090476Y-130261904D01*
X122138095Y-130357142D01*
X122185714Y-130404761D01*
X122280952Y-130452380D01*
X122471428Y-130452380D01*
X122566666Y-130404761D01*
X122614285Y-130357142D01*
X122661904Y-130261904D01*
X122661904Y-130023809D01*
X122614285Y-129928571D01*
X122566666Y-129880952D01*
X122471428Y-129833333D01*
X122280952Y-129833333D01*
X122185714Y-129880952D01*
X122138095Y-129928571D01*
X122090476Y-130023809D01*
X123357142Y-109357142D02*
X123309523Y-109404761D01*
X123166666Y-109452380D01*
X123071428Y-109452380D01*
X122928571Y-109404761D01*
X122833333Y-109309523D01*
X122785714Y-109214285D01*
X122738095Y-109023809D01*
X122738095Y-108880952D01*
X122785714Y-108690476D01*
X122833333Y-108595238D01*
X122928571Y-108500000D01*
X123071428Y-108452380D01*
X123166666Y-108452380D01*
X123309523Y-108500000D01*
X123357142Y-108547619D01*
X123690476Y-108452380D02*
X124309523Y-108452380D01*
X123976190Y-108833333D01*
X124119047Y-108833333D01*
X124214285Y-108880952D01*
X124261904Y-108928571D01*
X124309523Y-109023809D01*
X124309523Y-109261904D01*
X124261904Y-109357142D01*
X124214285Y-109404761D01*
X124119047Y-109452380D01*
X123833333Y-109452380D01*
X123738095Y-109404761D01*
X123690476Y-109357142D01*
X124642857Y-108452380D02*
X125309523Y-108452380D01*
X124880952Y-109452380D01*
X120757142Y-128357142D02*
X120709523Y-128404761D01*
X120566666Y-128452380D01*
X120471428Y-128452380D01*
X120328571Y-128404761D01*
X120233333Y-128309523D01*
X120185714Y-128214285D01*
X120138095Y-128023809D01*
X120138095Y-127880952D01*
X120185714Y-127690476D01*
X120233333Y-127595238D01*
X120328571Y-127500000D01*
X120471428Y-127452380D01*
X120566666Y-127452380D01*
X120709523Y-127500000D01*
X120757142Y-127547619D01*
X121090476Y-127452380D02*
X121709523Y-127452380D01*
X121376190Y-127833333D01*
X121519047Y-127833333D01*
X121614285Y-127880952D01*
X121661904Y-127928571D01*
X121709523Y-128023809D01*
X121709523Y-128261904D01*
X121661904Y-128357142D01*
X121614285Y-128404761D01*
X121519047Y-128452380D01*
X121233333Y-128452380D01*
X121138095Y-128404761D01*
X121090476Y-128357142D01*
X122280952Y-127880952D02*
X122185714Y-127833333D01*
X122138095Y-127785714D01*
X122090476Y-127690476D01*
X122090476Y-127642857D01*
X122138095Y-127547619D01*
X122185714Y-127500000D01*
X122280952Y-127452380D01*
X122471428Y-127452380D01*
X122566666Y-127500000D01*
X122614285Y-127547619D01*
X122661904Y-127642857D01*
X122661904Y-127690476D01*
X122614285Y-127785714D01*
X122566666Y-127833333D01*
X122471428Y-127880952D01*
X122280952Y-127880952D01*
X122185714Y-127928571D01*
X122138095Y-127976190D01*
X122090476Y-128071428D01*
X122090476Y-128261904D01*
X122138095Y-128357142D01*
X122185714Y-128404761D01*
X122280952Y-128452380D01*
X122471428Y-128452380D01*
X122566666Y-128404761D01*
X122614285Y-128357142D01*
X122661904Y-128261904D01*
X122661904Y-128071428D01*
X122614285Y-127976190D01*
X122566666Y-127928571D01*
X122471428Y-127880952D01*
X125857142Y-97857142D02*
X125809523Y-97904761D01*
X125666666Y-97952380D01*
X125571428Y-97952380D01*
X125428571Y-97904761D01*
X125333333Y-97809523D01*
X125285714Y-97714285D01*
X125238095Y-97523809D01*
X125238095Y-97380952D01*
X125285714Y-97190476D01*
X125333333Y-97095238D01*
X125428571Y-97000000D01*
X125571428Y-96952380D01*
X125666666Y-96952380D01*
X125809523Y-97000000D01*
X125857142Y-97047619D01*
X126190476Y-96952380D02*
X126809523Y-96952380D01*
X126476190Y-97333333D01*
X126619047Y-97333333D01*
X126714285Y-97380952D01*
X126761904Y-97428571D01*
X126809523Y-97523809D01*
X126809523Y-97761904D01*
X126761904Y-97857142D01*
X126714285Y-97904761D01*
X126619047Y-97952380D01*
X126333333Y-97952380D01*
X126238095Y-97904761D01*
X126190476Y-97857142D01*
X127285714Y-97952380D02*
X127476190Y-97952380D01*
X127571428Y-97904761D01*
X127619047Y-97857142D01*
X127714285Y-97714285D01*
X127761904Y-97523809D01*
X127761904Y-97142857D01*
X127714285Y-97047619D01*
X127666666Y-97000000D01*
X127571428Y-96952380D01*
X127380952Y-96952380D01*
X127285714Y-97000000D01*
X127238095Y-97047619D01*
X127190476Y-97142857D01*
X127190476Y-97380952D01*
X127238095Y-97476190D01*
X127285714Y-97523809D01*
X127380952Y-97571428D01*
X127571428Y-97571428D01*
X127666666Y-97523809D01*
X127714285Y-97476190D01*
X127761904Y-97380952D01*
X128607142Y-113857142D02*
X128559523Y-113904761D01*
X128416666Y-113952380D01*
X128321428Y-113952380D01*
X128178571Y-113904761D01*
X128083333Y-113809523D01*
X128035714Y-113714285D01*
X127988095Y-113523809D01*
X127988095Y-113380952D01*
X128035714Y-113190476D01*
X128083333Y-113095238D01*
X128178571Y-113000000D01*
X128321428Y-112952380D01*
X128416666Y-112952380D01*
X128559523Y-113000000D01*
X128607142Y-113047619D01*
X129464285Y-113285714D02*
X129464285Y-113952380D01*
X129226190Y-112904761D02*
X128988095Y-113619047D01*
X129607142Y-113619047D01*
X130178571Y-112952380D02*
X130273809Y-112952380D01*
X130369047Y-113000000D01*
X130416666Y-113047619D01*
X130464285Y-113142857D01*
X130511904Y-113333333D01*
X130511904Y-113571428D01*
X130464285Y-113761904D01*
X130416666Y-113857142D01*
X130369047Y-113904761D01*
X130273809Y-113952380D01*
X130178571Y-113952380D01*
X130083333Y-113904761D01*
X130035714Y-113857142D01*
X129988095Y-113761904D01*
X129940476Y-113571428D01*
X129940476Y-113333333D01*
X129988095Y-113142857D01*
X130035714Y-113047619D01*
X130083333Y-113000000D01*
X130178571Y-112952380D01*
X141107142Y-116392857D02*
X141154761Y-116440476D01*
X141202380Y-116583333D01*
X141202380Y-116678571D01*
X141154761Y-116821428D01*
X141059523Y-116916666D01*
X140964285Y-116964285D01*
X140773809Y-117011904D01*
X140630952Y-117011904D01*
X140440476Y-116964285D01*
X140345238Y-116916666D01*
X140250000Y-116821428D01*
X140202380Y-116678571D01*
X140202380Y-116583333D01*
X140250000Y-116440476D01*
X140297619Y-116392857D01*
X140535714Y-115535714D02*
X141202380Y-115535714D01*
X140154761Y-115773809D02*
X140869047Y-116011904D01*
X140869047Y-115392857D01*
X141202380Y-114488095D02*
X141202380Y-115059523D01*
X141202380Y-114773809D02*
X140202380Y-114773809D01*
X140345238Y-114869047D01*
X140440476Y-114964285D01*
X140488095Y-115059523D01*
X138157142Y-125957142D02*
X138109523Y-126004761D01*
X137966666Y-126052380D01*
X137871428Y-126052380D01*
X137728571Y-126004761D01*
X137633333Y-125909523D01*
X137585714Y-125814285D01*
X137538095Y-125623809D01*
X137538095Y-125480952D01*
X137585714Y-125290476D01*
X137633333Y-125195238D01*
X137728571Y-125100000D01*
X137871428Y-125052380D01*
X137966666Y-125052380D01*
X138109523Y-125100000D01*
X138157142Y-125147619D01*
X139014285Y-125385714D02*
X139014285Y-126052380D01*
X138776190Y-125004761D02*
X138538095Y-125719047D01*
X139157142Y-125719047D01*
X139490476Y-125147619D02*
X139538095Y-125100000D01*
X139633333Y-125052380D01*
X139871428Y-125052380D01*
X139966666Y-125100000D01*
X140014285Y-125147619D01*
X140061904Y-125242857D01*
X140061904Y-125338095D01*
X140014285Y-125480952D01*
X139442857Y-126052380D01*
X140061904Y-126052380D01*
D13*
X129428571Y-89678571D02*
X129404761Y-89702380D01*
X129333333Y-89726190D01*
X129285714Y-89726190D01*
X129214285Y-89702380D01*
X129166666Y-89654761D01*
X129142857Y-89607142D01*
X129119047Y-89511904D01*
X129119047Y-89440476D01*
X129142857Y-89345238D01*
X129166666Y-89297619D01*
X129214285Y-89250000D01*
X129285714Y-89226190D01*
X129333333Y-89226190D01*
X129404761Y-89250000D01*
X129428571Y-89273809D01*
X129857142Y-89392857D02*
X129857142Y-89726190D01*
X129738095Y-89202380D02*
X129619047Y-89559523D01*
X129928571Y-89559523D01*
X130071428Y-89226190D02*
X130380952Y-89226190D01*
X130214285Y-89416666D01*
X130285714Y-89416666D01*
X130333333Y-89440476D01*
X130357142Y-89464285D01*
X130380952Y-89511904D01*
X130380952Y-89630952D01*
X130357142Y-89678571D01*
X130333333Y-89702380D01*
X130285714Y-89726190D01*
X130142857Y-89726190D01*
X130095238Y-89702380D01*
X130071428Y-89678571D01*
D12*
X140107142Y-109142857D02*
X140154761Y-109190476D01*
X140202380Y-109333333D01*
X140202380Y-109428571D01*
X140154761Y-109571428D01*
X140059523Y-109666666D01*
X139964285Y-109714285D01*
X139773809Y-109761904D01*
X139630952Y-109761904D01*
X139440476Y-109714285D01*
X139345238Y-109666666D01*
X139250000Y-109571428D01*
X139202380Y-109428571D01*
X139202380Y-109333333D01*
X139250000Y-109190476D01*
X139297619Y-109142857D01*
X139535714Y-108285714D02*
X140202380Y-108285714D01*
X139154761Y-108523809D02*
X139869047Y-108761904D01*
X139869047Y-108142857D01*
X139535714Y-107333333D02*
X140202380Y-107333333D01*
X139154761Y-107571428D02*
X139869047Y-107809523D01*
X139869047Y-107190476D01*
X141857142Y-109142857D02*
X141904761Y-109190476D01*
X141952380Y-109333333D01*
X141952380Y-109428571D01*
X141904761Y-109571428D01*
X141809523Y-109666666D01*
X141714285Y-109714285D01*
X141523809Y-109761904D01*
X141380952Y-109761904D01*
X141190476Y-109714285D01*
X141095238Y-109666666D01*
X141000000Y-109571428D01*
X140952380Y-109428571D01*
X140952380Y-109333333D01*
X141000000Y-109190476D01*
X141047619Y-109142857D01*
X141285714Y-108285714D02*
X141952380Y-108285714D01*
X140904761Y-108523809D02*
X141619047Y-108761904D01*
X141619047Y-108142857D01*
X140952380Y-107285714D02*
X140952380Y-107761904D01*
X141428571Y-107809523D01*
X141380952Y-107761904D01*
X141333333Y-107666666D01*
X141333333Y-107428571D01*
X141380952Y-107333333D01*
X141428571Y-107285714D01*
X141523809Y-107238095D01*
X141761904Y-107238095D01*
X141857142Y-107285714D01*
X141904761Y-107333333D01*
X141952380Y-107428571D01*
X141952380Y-107666666D01*
X141904761Y-107761904D01*
X141857142Y-107809523D01*
X124707142Y-93142857D02*
X124754761Y-93190476D01*
X124802380Y-93333333D01*
X124802380Y-93428571D01*
X124754761Y-93571428D01*
X124659523Y-93666666D01*
X124564285Y-93714285D01*
X124373809Y-93761904D01*
X124230952Y-93761904D01*
X124040476Y-93714285D01*
X123945238Y-93666666D01*
X123850000Y-93571428D01*
X123802380Y-93428571D01*
X123802380Y-93333333D01*
X123850000Y-93190476D01*
X123897619Y-93142857D01*
X124135714Y-92285714D02*
X124802380Y-92285714D01*
X123754761Y-92523809D02*
X124469047Y-92761904D01*
X124469047Y-92142857D01*
X123802380Y-91333333D02*
X123802380Y-91523809D01*
X123850000Y-91619047D01*
X123897619Y-91666666D01*
X124040476Y-91761904D01*
X124230952Y-91809523D01*
X124611904Y-91809523D01*
X124707142Y-91761904D01*
X124754761Y-91714285D01*
X124802380Y-91619047D01*
X124802380Y-91428571D01*
X124754761Y-91333333D01*
X124707142Y-91285714D01*
X124611904Y-91238095D01*
X124373809Y-91238095D01*
X124278571Y-91285714D01*
X124230952Y-91333333D01*
X124183333Y-91428571D01*
X124183333Y-91619047D01*
X124230952Y-91714285D01*
X124278571Y-91761904D01*
X124373809Y-91809523D01*
X143607142Y-109142857D02*
X143654761Y-109190476D01*
X143702380Y-109333333D01*
X143702380Y-109428571D01*
X143654761Y-109571428D01*
X143559523Y-109666666D01*
X143464285Y-109714285D01*
X143273809Y-109761904D01*
X143130952Y-109761904D01*
X142940476Y-109714285D01*
X142845238Y-109666666D01*
X142750000Y-109571428D01*
X142702380Y-109428571D01*
X142702380Y-109333333D01*
X142750000Y-109190476D01*
X142797619Y-109142857D01*
X143035714Y-108285714D02*
X143702380Y-108285714D01*
X142654761Y-108523809D02*
X143369047Y-108761904D01*
X143369047Y-108142857D01*
X142702380Y-107857142D02*
X142702380Y-107190476D01*
X143702380Y-107619047D01*
X129107142Y-96357142D02*
X129059523Y-96404761D01*
X128916666Y-96452380D01*
X128821428Y-96452380D01*
X128678571Y-96404761D01*
X128583333Y-96309523D01*
X128535714Y-96214285D01*
X128488095Y-96023809D01*
X128488095Y-95880952D01*
X128535714Y-95690476D01*
X128583333Y-95595238D01*
X128678571Y-95500000D01*
X128821428Y-95452380D01*
X128916666Y-95452380D01*
X129059523Y-95500000D01*
X129107142Y-95547619D01*
X129964285Y-95785714D02*
X129964285Y-96452380D01*
X129726190Y-95404761D02*
X129488095Y-96119047D01*
X130107142Y-96119047D01*
X130630952Y-95880952D02*
X130535714Y-95833333D01*
X130488095Y-95785714D01*
X130440476Y-95690476D01*
X130440476Y-95642857D01*
X130488095Y-95547619D01*
X130535714Y-95500000D01*
X130630952Y-95452380D01*
X130821428Y-95452380D01*
X130916666Y-95500000D01*
X130964285Y-95547619D01*
X131011904Y-95642857D01*
X131011904Y-95690476D01*
X130964285Y-95785714D01*
X130916666Y-95833333D01*
X130821428Y-95880952D01*
X130630952Y-95880952D01*
X130535714Y-95928571D01*
X130488095Y-95976190D01*
X130440476Y-96071428D01*
X130440476Y-96261904D01*
X130488095Y-96357142D01*
X130535714Y-96404761D01*
X130630952Y-96452380D01*
X130821428Y-96452380D01*
X130916666Y-96404761D01*
X130964285Y-96357142D01*
X131011904Y-96261904D01*
X131011904Y-96071428D01*
X130964285Y-95976190D01*
X130916666Y-95928571D01*
X130821428Y-95880952D01*
X102333333Y-93652380D02*
X101857142Y-93652380D01*
X101857142Y-92652380D01*
X103190476Y-93652380D02*
X102619047Y-93652380D01*
X102904761Y-93652380D02*
X102904761Y-92652380D01*
X102809523Y-92795238D01*
X102714285Y-92890476D01*
X102619047Y-92938095D01*
X102583333Y-126952380D02*
X102107142Y-126952380D01*
X102107142Y-125952380D01*
X102869047Y-126047619D02*
X102916666Y-126000000D01*
X103011904Y-125952380D01*
X103250000Y-125952380D01*
X103345238Y-126000000D01*
X103392857Y-126047619D01*
X103440476Y-126142857D01*
X103440476Y-126238095D01*
X103392857Y-126380952D01*
X102821428Y-126952380D01*
X103440476Y-126952380D01*
X103452380Y-101916666D02*
X103452380Y-102392857D01*
X102452380Y-102392857D01*
X102452380Y-101678571D02*
X102452380Y-101059523D01*
X102833333Y-101392857D01*
X102833333Y-101250000D01*
X102880952Y-101154761D01*
X102928571Y-101107142D01*
X103023809Y-101059523D01*
X103261904Y-101059523D01*
X103357142Y-101107142D01*
X103404761Y-101154761D01*
X103452380Y-101250000D01*
X103452380Y-101535714D01*
X103404761Y-101630952D01*
X103357142Y-101678571D01*
X102583333Y-123952380D02*
X102107142Y-123952380D01*
X102107142Y-122952380D01*
X103345238Y-123285714D02*
X103345238Y-123952380D01*
X103107142Y-122904761D02*
X102869047Y-123619047D01*
X103488095Y-123619047D01*
X107833333Y-104202380D02*
X107357142Y-104202380D01*
X107357142Y-103202380D01*
X108642857Y-103202380D02*
X108166666Y-103202380D01*
X108119047Y-103678571D01*
X108166666Y-103630952D01*
X108261904Y-103583333D01*
X108500000Y-103583333D01*
X108595238Y-103630952D01*
X108642857Y-103678571D01*
X108690476Y-103773809D01*
X108690476Y-104011904D01*
X108642857Y-104107142D01*
X108595238Y-104154761D01*
X108500000Y-104202380D01*
X108261904Y-104202380D01*
X108166666Y-104154761D01*
X108119047Y-104107142D01*
X107833333Y-127952380D02*
X107357142Y-127952380D01*
X107357142Y-126952380D01*
X108595238Y-126952380D02*
X108404761Y-126952380D01*
X108309523Y-127000000D01*
X108261904Y-127047619D01*
X108166666Y-127190476D01*
X108119047Y-127380952D01*
X108119047Y-127761904D01*
X108166666Y-127857142D01*
X108214285Y-127904761D01*
X108309523Y-127952380D01*
X108500000Y-127952380D01*
X108595238Y-127904761D01*
X108642857Y-127857142D01*
X108690476Y-127761904D01*
X108690476Y-127523809D01*
X108642857Y-127428571D01*
X108595238Y-127380952D01*
X108500000Y-127333333D01*
X108309523Y-127333333D01*
X108214285Y-127380952D01*
X108166666Y-127428571D01*
X108119047Y-127523809D01*
X107583333Y-98952380D02*
X107107142Y-98952380D01*
X107107142Y-97952380D01*
X107821428Y-97952380D02*
X108488095Y-97952380D01*
X108059523Y-98952380D01*
X107583333Y-122202380D02*
X107107142Y-122202380D01*
X107107142Y-121202380D01*
X108059523Y-121630952D02*
X107964285Y-121583333D01*
X107916666Y-121535714D01*
X107869047Y-121440476D01*
X107869047Y-121392857D01*
X107916666Y-121297619D01*
X107964285Y-121250000D01*
X108059523Y-121202380D01*
X108250000Y-121202380D01*
X108345238Y-121250000D01*
X108392857Y-121297619D01*
X108440476Y-121392857D01*
X108440476Y-121440476D01*
X108392857Y-121535714D01*
X108345238Y-121583333D01*
X108250000Y-121630952D01*
X108059523Y-121630952D01*
X107964285Y-121678571D01*
X107916666Y-121726190D01*
X107869047Y-121821428D01*
X107869047Y-122011904D01*
X107916666Y-122107142D01*
X107964285Y-122154761D01*
X108059523Y-122202380D01*
X108250000Y-122202380D01*
X108345238Y-122154761D01*
X108392857Y-122107142D01*
X108440476Y-122011904D01*
X108440476Y-121821428D01*
X108392857Y-121726190D01*
X108345238Y-121678571D01*
X108250000Y-121630952D01*
D13*
X131416666Y-92976190D02*
X131178571Y-92976190D01*
X131178571Y-92476190D01*
X131607142Y-92976190D02*
X131702380Y-92976190D01*
X131750000Y-92952380D01*
X131773809Y-92928571D01*
X131821428Y-92857142D01*
X131845238Y-92761904D01*
X131845238Y-92571428D01*
X131821428Y-92523809D01*
X131797619Y-92500000D01*
X131750000Y-92476190D01*
X131654761Y-92476190D01*
X131607142Y-92500000D01*
X131583333Y-92523809D01*
X131559523Y-92571428D01*
X131559523Y-92690476D01*
X131583333Y-92738095D01*
X131607142Y-92761904D01*
X131654761Y-92785714D01*
X131750000Y-92785714D01*
X131797619Y-92761904D01*
X131821428Y-92738095D01*
X131845238Y-92690476D01*
D12*
X95761904Y-91202380D02*
X95761904Y-90202380D01*
X96142857Y-90202380D01*
X96238095Y-90250000D01*
X96285714Y-90297619D01*
X96333333Y-90392857D01*
X96333333Y-90535714D01*
X96285714Y-90630952D01*
X96238095Y-90678571D01*
X96142857Y-90726190D01*
X95761904Y-90726190D01*
X97285714Y-91202380D02*
X96714285Y-91202380D01*
X97000000Y-91202380D02*
X97000000Y-90202380D01*
X96904761Y-90345238D01*
X96809523Y-90440476D01*
X96714285Y-90488095D01*
X95761904Y-120452380D02*
X95761904Y-119452380D01*
X96142857Y-119452380D01*
X96238095Y-119500000D01*
X96285714Y-119547619D01*
X96333333Y-119642857D01*
X96333333Y-119785714D01*
X96285714Y-119880952D01*
X96238095Y-119928571D01*
X96142857Y-119976190D01*
X95761904Y-119976190D01*
X96714285Y-119547619D02*
X96761904Y-119500000D01*
X96857142Y-119452380D01*
X97095238Y-119452380D01*
X97190476Y-119500000D01*
X97238095Y-119547619D01*
X97285714Y-119642857D01*
X97285714Y-119738095D01*
X97238095Y-119880952D01*
X96666666Y-120452380D01*
X97285714Y-120452380D01*
X127132380Y-135088095D02*
X126132380Y-135088095D01*
X126132380Y-134707142D01*
X126180000Y-134611904D01*
X126227619Y-134564285D01*
X126322857Y-134516666D01*
X126465714Y-134516666D01*
X126560952Y-134564285D01*
X126608571Y-134611904D01*
X126656190Y-134707142D01*
X126656190Y-135088095D01*
X126132380Y-134183333D02*
X126132380Y-133564285D01*
X126513333Y-133897619D01*
X126513333Y-133754761D01*
X126560952Y-133659523D01*
X126608571Y-133611904D01*
X126703809Y-133564285D01*
X126941904Y-133564285D01*
X127037142Y-133611904D01*
X127084761Y-133659523D01*
X127132380Y-133754761D01*
X127132380Y-134040476D01*
X127084761Y-134135714D01*
X127037142Y-134183333D01*
X142552380Y-124338095D02*
X141552380Y-124338095D01*
X141552380Y-123957142D01*
X141600000Y-123861904D01*
X141647619Y-123814285D01*
X141742857Y-123766666D01*
X141885714Y-123766666D01*
X141980952Y-123814285D01*
X142028571Y-123861904D01*
X142076190Y-123957142D01*
X142076190Y-124338095D01*
X141885714Y-122909523D02*
X142552380Y-122909523D01*
X141504761Y-123147619D02*
X142219047Y-123385714D01*
X142219047Y-122766666D01*
X142302380Y-129538095D02*
X141302380Y-129538095D01*
X141302380Y-129157142D01*
X141350000Y-129061904D01*
X141397619Y-129014285D01*
X141492857Y-128966666D01*
X141635714Y-128966666D01*
X141730952Y-129014285D01*
X141778571Y-129061904D01*
X141826190Y-129157142D01*
X141826190Y-129538095D01*
X141302380Y-128061904D02*
X141302380Y-128538095D01*
X141778571Y-128585714D01*
X141730952Y-128538095D01*
X141683333Y-128442857D01*
X141683333Y-128204761D01*
X141730952Y-128109523D01*
X141778571Y-128061904D01*
X141873809Y-128014285D01*
X142111904Y-128014285D01*
X142207142Y-128061904D01*
X142254761Y-128109523D01*
X142302380Y-128204761D01*
X142302380Y-128442857D01*
X142254761Y-128538095D01*
X142207142Y-128585714D01*
X138583333Y-102452380D02*
X138250000Y-101976190D01*
X138011904Y-102452380D02*
X138011904Y-101452380D01*
X138392857Y-101452380D01*
X138488095Y-101500000D01*
X138535714Y-101547619D01*
X138583333Y-101642857D01*
X138583333Y-101785714D01*
X138535714Y-101880952D01*
X138488095Y-101928571D01*
X138392857Y-101976190D01*
X138011904Y-101976190D01*
X139535714Y-102452380D02*
X138964285Y-102452380D01*
X139250000Y-102452380D02*
X139250000Y-101452380D01*
X139154761Y-101595238D01*
X139059523Y-101690476D01*
X138964285Y-101738095D01*
X108083333Y-107702380D02*
X107750000Y-107226190D01*
X107511904Y-107702380D02*
X107511904Y-106702380D01*
X107892857Y-106702380D01*
X107988095Y-106750000D01*
X108035714Y-106797619D01*
X108083333Y-106892857D01*
X108083333Y-107035714D01*
X108035714Y-107130952D01*
X107988095Y-107178571D01*
X107892857Y-107226190D01*
X107511904Y-107226190D01*
X108464285Y-106797619D02*
X108511904Y-106750000D01*
X108607142Y-106702380D01*
X108845238Y-106702380D01*
X108940476Y-106750000D01*
X108988095Y-106797619D01*
X109035714Y-106892857D01*
X109035714Y-106988095D01*
X108988095Y-107130952D01*
X108416666Y-107702380D01*
X109035714Y-107702380D01*
X107833333Y-131452380D02*
X107500000Y-130976190D01*
X107261904Y-131452380D02*
X107261904Y-130452380D01*
X107642857Y-130452380D01*
X107738095Y-130500000D01*
X107785714Y-130547619D01*
X107833333Y-130642857D01*
X107833333Y-130785714D01*
X107785714Y-130880952D01*
X107738095Y-130928571D01*
X107642857Y-130976190D01*
X107261904Y-130976190D01*
X108166666Y-130452380D02*
X108785714Y-130452380D01*
X108452380Y-130833333D01*
X108595238Y-130833333D01*
X108690476Y-130880952D01*
X108738095Y-130928571D01*
X108785714Y-131023809D01*
X108785714Y-131261904D01*
X108738095Y-131357142D01*
X108690476Y-131404761D01*
X108595238Y-131452380D01*
X108309523Y-131452380D01*
X108214285Y-131404761D01*
X108166666Y-131357142D01*
X107833333Y-111202380D02*
X107500000Y-110726190D01*
X107261904Y-111202380D02*
X107261904Y-110202380D01*
X107642857Y-110202380D01*
X107738095Y-110250000D01*
X107785714Y-110297619D01*
X107833333Y-110392857D01*
X107833333Y-110535714D01*
X107785714Y-110630952D01*
X107738095Y-110678571D01*
X107642857Y-110726190D01*
X107261904Y-110726190D01*
X108690476Y-110535714D02*
X108690476Y-111202380D01*
X108452380Y-110154761D02*
X108214285Y-110869047D01*
X108833333Y-110869047D01*
X107833333Y-134952380D02*
X107500000Y-134476190D01*
X107261904Y-134952380D02*
X107261904Y-133952380D01*
X107642857Y-133952380D01*
X107738095Y-134000000D01*
X107785714Y-134047619D01*
X107833333Y-134142857D01*
X107833333Y-134285714D01*
X107785714Y-134380952D01*
X107738095Y-134428571D01*
X107642857Y-134476190D01*
X107261904Y-134476190D01*
X108738095Y-133952380D02*
X108261904Y-133952380D01*
X108214285Y-134428571D01*
X108261904Y-134380952D01*
X108357142Y-134333333D01*
X108595238Y-134333333D01*
X108690476Y-134380952D01*
X108738095Y-134428571D01*
X108785714Y-134523809D01*
X108785714Y-134761904D01*
X108738095Y-134857142D01*
X108690476Y-134904761D01*
X108595238Y-134952380D01*
X108357142Y-134952380D01*
X108261904Y-134904761D01*
X108214285Y-134857142D01*
X109952380Y-91416666D02*
X109476190Y-91750000D01*
X109952380Y-91988095D02*
X108952380Y-91988095D01*
X108952380Y-91607142D01*
X109000000Y-91511904D01*
X109047619Y-91464285D01*
X109142857Y-91416666D01*
X109285714Y-91416666D01*
X109380952Y-91464285D01*
X109428571Y-91511904D01*
X109476190Y-91607142D01*
X109476190Y-91988095D01*
X108952380Y-90559523D02*
X108952380Y-90750000D01*
X109000000Y-90845238D01*
X109047619Y-90892857D01*
X109190476Y-90988095D01*
X109380952Y-91035714D01*
X109761904Y-91035714D01*
X109857142Y-90988095D01*
X109904761Y-90940476D01*
X109952380Y-90845238D01*
X109952380Y-90654761D01*
X109904761Y-90559523D01*
X109857142Y-90511904D01*
X109761904Y-90464285D01*
X109523809Y-90464285D01*
X109428571Y-90511904D01*
X109380952Y-90559523D01*
X109333333Y-90654761D01*
X109333333Y-90845238D01*
X109380952Y-90940476D01*
X109428571Y-90988095D01*
X109523809Y-91035714D01*
X110233333Y-116952380D02*
X109900000Y-116476190D01*
X109661904Y-116952380D02*
X109661904Y-115952380D01*
X110042857Y-115952380D01*
X110138095Y-116000000D01*
X110185714Y-116047619D01*
X110233333Y-116142857D01*
X110233333Y-116285714D01*
X110185714Y-116380952D01*
X110138095Y-116428571D01*
X110042857Y-116476190D01*
X109661904Y-116476190D01*
X110566666Y-115952380D02*
X111233333Y-115952380D01*
X110804761Y-116952380D01*
X112702380Y-96916666D02*
X112226190Y-97250000D01*
X112702380Y-97488095D02*
X111702380Y-97488095D01*
X111702380Y-97107142D01*
X111750000Y-97011904D01*
X111797619Y-96964285D01*
X111892857Y-96916666D01*
X112035714Y-96916666D01*
X112130952Y-96964285D01*
X112178571Y-97011904D01*
X112226190Y-97107142D01*
X112226190Y-97488095D01*
X112130952Y-96345238D02*
X112083333Y-96440476D01*
X112035714Y-96488095D01*
X111940476Y-96535714D01*
X111892857Y-96535714D01*
X111797619Y-96488095D01*
X111750000Y-96440476D01*
X111702380Y-96345238D01*
X111702380Y-96154761D01*
X111750000Y-96059523D01*
X111797619Y-96011904D01*
X111892857Y-95964285D01*
X111940476Y-95964285D01*
X112035714Y-96011904D01*
X112083333Y-96059523D01*
X112130952Y-96154761D01*
X112130952Y-96345238D01*
X112178571Y-96440476D01*
X112226190Y-96488095D01*
X112321428Y-96535714D01*
X112511904Y-96535714D01*
X112607142Y-96488095D01*
X112654761Y-96440476D01*
X112702380Y-96345238D01*
X112702380Y-96154761D01*
X112654761Y-96059523D01*
X112607142Y-96011904D01*
X112511904Y-95964285D01*
X112321428Y-95964285D01*
X112226190Y-96011904D01*
X112178571Y-96059523D01*
X112130952Y-96154761D01*
X113702380Y-120416666D02*
X113226190Y-120750000D01*
X113702380Y-120988095D02*
X112702380Y-120988095D01*
X112702380Y-120607142D01*
X112750000Y-120511904D01*
X112797619Y-120464285D01*
X112892857Y-120416666D01*
X113035714Y-120416666D01*
X113130952Y-120464285D01*
X113178571Y-120511904D01*
X113226190Y-120607142D01*
X113226190Y-120988095D01*
X113702380Y-119940476D02*
X113702380Y-119750000D01*
X113654761Y-119654761D01*
X113607142Y-119607142D01*
X113464285Y-119511904D01*
X113273809Y-119464285D01*
X112892857Y-119464285D01*
X112797619Y-119511904D01*
X112750000Y-119559523D01*
X112702380Y-119654761D01*
X112702380Y-119845238D01*
X112750000Y-119940476D01*
X112797619Y-119988095D01*
X112892857Y-120035714D01*
X113130952Y-120035714D01*
X113226190Y-119988095D01*
X113273809Y-119940476D01*
X113321428Y-119845238D01*
X113321428Y-119654761D01*
X113273809Y-119559523D01*
X113226190Y-119511904D01*
X113130952Y-119464285D01*
X114452380Y-97642857D02*
X113976190Y-97976190D01*
X114452380Y-98214285D02*
X113452380Y-98214285D01*
X113452380Y-97833333D01*
X113500000Y-97738095D01*
X113547619Y-97690476D01*
X113642857Y-97642857D01*
X113785714Y-97642857D01*
X113880952Y-97690476D01*
X113928571Y-97738095D01*
X113976190Y-97833333D01*
X113976190Y-98214285D01*
X114452380Y-96690476D02*
X114452380Y-97261904D01*
X114452380Y-96976190D02*
X113452380Y-96976190D01*
X113595238Y-97071428D01*
X113690476Y-97166666D01*
X113738095Y-97261904D01*
X113452380Y-96071428D02*
X113452380Y-95976190D01*
X113500000Y-95880952D01*
X113547619Y-95833333D01*
X113642857Y-95785714D01*
X113833333Y-95738095D01*
X114071428Y-95738095D01*
X114261904Y-95785714D01*
X114357142Y-95833333D01*
X114404761Y-95880952D01*
X114452380Y-95976190D01*
X114452380Y-96071428D01*
X114404761Y-96166666D01*
X114357142Y-96214285D01*
X114261904Y-96261904D01*
X114071428Y-96309523D01*
X113833333Y-96309523D01*
X113642857Y-96261904D01*
X113547619Y-96214285D01*
X113500000Y-96166666D01*
X113452380Y-96071428D01*
X115452380Y-121392857D02*
X114976190Y-121726190D01*
X115452380Y-121964285D02*
X114452380Y-121964285D01*
X114452380Y-121583333D01*
X114500000Y-121488095D01*
X114547619Y-121440476D01*
X114642857Y-121392857D01*
X114785714Y-121392857D01*
X114880952Y-121440476D01*
X114928571Y-121488095D01*
X114976190Y-121583333D01*
X114976190Y-121964285D01*
X115452380Y-120440476D02*
X115452380Y-121011904D01*
X115452380Y-120726190D02*
X114452380Y-120726190D01*
X114595238Y-120821428D01*
X114690476Y-120916666D01*
X114738095Y-121011904D01*
X115452380Y-119488095D02*
X115452380Y-120059523D01*
X115452380Y-119773809D02*
X114452380Y-119773809D01*
X114595238Y-119869047D01*
X114690476Y-119964285D01*
X114738095Y-120059523D01*
X123107142Y-102602380D02*
X122773809Y-102126190D01*
X122535714Y-102602380D02*
X122535714Y-101602380D01*
X122916666Y-101602380D01*
X123011904Y-101650000D01*
X123059523Y-101697619D01*
X123107142Y-101792857D01*
X123107142Y-101935714D01*
X123059523Y-102030952D01*
X123011904Y-102078571D01*
X122916666Y-102126190D01*
X122535714Y-102126190D01*
X124059523Y-102602380D02*
X123488095Y-102602380D01*
X123773809Y-102602380D02*
X123773809Y-101602380D01*
X123678571Y-101745238D01*
X123583333Y-101840476D01*
X123488095Y-101888095D01*
X124440476Y-101697619D02*
X124488095Y-101650000D01*
X124583333Y-101602380D01*
X124821428Y-101602380D01*
X124916666Y-101650000D01*
X124964285Y-101697619D01*
X125011904Y-101792857D01*
X125011904Y-101888095D01*
X124964285Y-102030952D01*
X124392857Y-102602380D01*
X125011904Y-102602380D01*
X123107142Y-105952380D02*
X122773809Y-105476190D01*
X122535714Y-105952380D02*
X122535714Y-104952380D01*
X122916666Y-104952380D01*
X123011904Y-105000000D01*
X123059523Y-105047619D01*
X123107142Y-105142857D01*
X123107142Y-105285714D01*
X123059523Y-105380952D01*
X123011904Y-105428571D01*
X122916666Y-105476190D01*
X122535714Y-105476190D01*
X124059523Y-105952380D02*
X123488095Y-105952380D01*
X123773809Y-105952380D02*
X123773809Y-104952380D01*
X123678571Y-105095238D01*
X123583333Y-105190476D01*
X123488095Y-105238095D01*
X124392857Y-104952380D02*
X125011904Y-104952380D01*
X124678571Y-105333333D01*
X124821428Y-105333333D01*
X124916666Y-105380952D01*
X124964285Y-105428571D01*
X125011904Y-105523809D01*
X125011904Y-105761904D01*
X124964285Y-105857142D01*
X124916666Y-105904761D01*
X124821428Y-105952380D01*
X124535714Y-105952380D01*
X124440476Y-105904761D01*
X124392857Y-105857142D01*
X120757142Y-124652380D02*
X120423809Y-124176190D01*
X120185714Y-124652380D02*
X120185714Y-123652380D01*
X120566666Y-123652380D01*
X120661904Y-123700000D01*
X120709523Y-123747619D01*
X120757142Y-123842857D01*
X120757142Y-123985714D01*
X120709523Y-124080952D01*
X120661904Y-124128571D01*
X120566666Y-124176190D01*
X120185714Y-124176190D01*
X121709523Y-124652380D02*
X121138095Y-124652380D01*
X121423809Y-124652380D02*
X121423809Y-123652380D01*
X121328571Y-123795238D01*
X121233333Y-123890476D01*
X121138095Y-123938095D01*
X122566666Y-123985714D02*
X122566666Y-124652380D01*
X122328571Y-123604761D02*
X122090476Y-124319047D01*
X122709523Y-124319047D01*
X120757142Y-126452380D02*
X120423809Y-125976190D01*
X120185714Y-126452380D02*
X120185714Y-125452380D01*
X120566666Y-125452380D01*
X120661904Y-125500000D01*
X120709523Y-125547619D01*
X120757142Y-125642857D01*
X120757142Y-125785714D01*
X120709523Y-125880952D01*
X120661904Y-125928571D01*
X120566666Y-125976190D01*
X120185714Y-125976190D01*
X121709523Y-126452380D02*
X121138095Y-126452380D01*
X121423809Y-126452380D02*
X121423809Y-125452380D01*
X121328571Y-125595238D01*
X121233333Y-125690476D01*
X121138095Y-125738095D01*
X122614285Y-125452380D02*
X122138095Y-125452380D01*
X122090476Y-125928571D01*
X122138095Y-125880952D01*
X122233333Y-125833333D01*
X122471428Y-125833333D01*
X122566666Y-125880952D01*
X122614285Y-125928571D01*
X122661904Y-126023809D01*
X122661904Y-126261904D01*
X122614285Y-126357142D01*
X122566666Y-126404761D01*
X122471428Y-126452380D01*
X122233333Y-126452380D01*
X122138095Y-126404761D01*
X122090476Y-126357142D01*
X138507142Y-123552380D02*
X138173809Y-123076190D01*
X137935714Y-123552380D02*
X137935714Y-122552380D01*
X138316666Y-122552380D01*
X138411904Y-122600000D01*
X138459523Y-122647619D01*
X138507142Y-122742857D01*
X138507142Y-122885714D01*
X138459523Y-122980952D01*
X138411904Y-123028571D01*
X138316666Y-123076190D01*
X137935714Y-123076190D01*
X139459523Y-123552380D02*
X138888095Y-123552380D01*
X139173809Y-123552380D02*
X139173809Y-122552380D01*
X139078571Y-122695238D01*
X138983333Y-122790476D01*
X138888095Y-122838095D01*
X140316666Y-122552380D02*
X140126190Y-122552380D01*
X140030952Y-122600000D01*
X139983333Y-122647619D01*
X139888095Y-122790476D01*
X139840476Y-122980952D01*
X139840476Y-123361904D01*
X139888095Y-123457142D01*
X139935714Y-123504761D01*
X140030952Y-123552380D01*
X140221428Y-123552380D01*
X140316666Y-123504761D01*
X140364285Y-123457142D01*
X140411904Y-123361904D01*
X140411904Y-123123809D01*
X140364285Y-123028571D01*
X140316666Y-122980952D01*
X140221428Y-122933333D01*
X140030952Y-122933333D01*
X139935714Y-122980952D01*
X139888095Y-123028571D01*
X139840476Y-123123809D01*
D13*
X144976190Y-104221428D02*
X144738095Y-104388095D01*
X144976190Y-104507142D02*
X144476190Y-104507142D01*
X144476190Y-104316666D01*
X144500000Y-104269047D01*
X144523809Y-104245238D01*
X144571428Y-104221428D01*
X144642857Y-104221428D01*
X144690476Y-104245238D01*
X144714285Y-104269047D01*
X144738095Y-104316666D01*
X144738095Y-104507142D01*
X144976190Y-103745238D02*
X144976190Y-104030952D01*
X144976190Y-103888095D02*
X144476190Y-103888095D01*
X144547619Y-103935714D01*
X144595238Y-103983333D01*
X144619047Y-104030952D01*
X144476190Y-103578571D02*
X144476190Y-103245238D01*
X144976190Y-103459523D01*
X144976190Y-108221428D02*
X144738095Y-108388095D01*
X144976190Y-108507142D02*
X144476190Y-108507142D01*
X144476190Y-108316666D01*
X144500000Y-108269047D01*
X144523809Y-108245238D01*
X144571428Y-108221428D01*
X144642857Y-108221428D01*
X144690476Y-108245238D01*
X144714285Y-108269047D01*
X144738095Y-108316666D01*
X144738095Y-108507142D01*
X144976190Y-107745238D02*
X144976190Y-108030952D01*
X144976190Y-107888095D02*
X144476190Y-107888095D01*
X144547619Y-107935714D01*
X144595238Y-107983333D01*
X144619047Y-108030952D01*
X144690476Y-107459523D02*
X144666666Y-107507142D01*
X144642857Y-107530952D01*
X144595238Y-107554761D01*
X144571428Y-107554761D01*
X144523809Y-107530952D01*
X144500000Y-107507142D01*
X144476190Y-107459523D01*
X144476190Y-107364285D01*
X144500000Y-107316666D01*
X144523809Y-107292857D01*
X144571428Y-107269047D01*
X144595238Y-107269047D01*
X144642857Y-107292857D01*
X144666666Y-107316666D01*
X144690476Y-107364285D01*
X144690476Y-107459523D01*
X144714285Y-107507142D01*
X144738095Y-107530952D01*
X144785714Y-107554761D01*
X144880952Y-107554761D01*
X144928571Y-107530952D01*
X144952380Y-107507142D01*
X144976190Y-107459523D01*
X144976190Y-107364285D01*
X144952380Y-107316666D01*
X144928571Y-107292857D01*
X144880952Y-107269047D01*
X144785714Y-107269047D01*
X144738095Y-107292857D01*
X144714285Y-107316666D01*
X144690476Y-107364285D01*
X144976190Y-110221428D02*
X144738095Y-110388095D01*
X144976190Y-110507142D02*
X144476190Y-110507142D01*
X144476190Y-110316666D01*
X144500000Y-110269047D01*
X144523809Y-110245238D01*
X144571428Y-110221428D01*
X144642857Y-110221428D01*
X144690476Y-110245238D01*
X144714285Y-110269047D01*
X144738095Y-110316666D01*
X144738095Y-110507142D01*
X144976190Y-109745238D02*
X144976190Y-110030952D01*
X144976190Y-109888095D02*
X144476190Y-109888095D01*
X144547619Y-109935714D01*
X144595238Y-109983333D01*
X144619047Y-110030952D01*
X144976190Y-109507142D02*
X144976190Y-109411904D01*
X144952380Y-109364285D01*
X144928571Y-109340476D01*
X144857142Y-109292857D01*
X144761904Y-109269047D01*
X144571428Y-109269047D01*
X144523809Y-109292857D01*
X144500000Y-109316666D01*
X144476190Y-109364285D01*
X144476190Y-109459523D01*
X144500000Y-109507142D01*
X144523809Y-109530952D01*
X144571428Y-109554761D01*
X144690476Y-109554761D01*
X144738095Y-109530952D01*
X144761904Y-109507142D01*
X144785714Y-109459523D01*
X144785714Y-109364285D01*
X144761904Y-109316666D01*
X144738095Y-109292857D01*
X144690476Y-109269047D01*
D12*
X142857142Y-112352380D02*
X142523809Y-111876190D01*
X142285714Y-112352380D02*
X142285714Y-111352380D01*
X142666666Y-111352380D01*
X142761904Y-111400000D01*
X142809523Y-111447619D01*
X142857142Y-111542857D01*
X142857142Y-111685714D01*
X142809523Y-111780952D01*
X142761904Y-111828571D01*
X142666666Y-111876190D01*
X142285714Y-111876190D01*
X143238095Y-111447619D02*
X143285714Y-111400000D01*
X143380952Y-111352380D01*
X143619047Y-111352380D01*
X143714285Y-111400000D01*
X143761904Y-111447619D01*
X143809523Y-111542857D01*
X143809523Y-111638095D01*
X143761904Y-111780952D01*
X143190476Y-112352380D01*
X143809523Y-112352380D01*
X144428571Y-111352380D02*
X144523809Y-111352380D01*
X144619047Y-111400000D01*
X144666666Y-111447619D01*
X144714285Y-111542857D01*
X144761904Y-111733333D01*
X144761904Y-111971428D01*
X144714285Y-112161904D01*
X144666666Y-112257142D01*
X144619047Y-112304761D01*
X144523809Y-112352380D01*
X144428571Y-112352380D01*
X144333333Y-112304761D01*
X144285714Y-112257142D01*
X144238095Y-112161904D01*
X144190476Y-111971428D01*
X144190476Y-111733333D01*
X144238095Y-111542857D01*
X144285714Y-111447619D01*
X144333333Y-111400000D01*
X144428571Y-111352380D01*
X142857142Y-114352380D02*
X142523809Y-113876190D01*
X142285714Y-114352380D02*
X142285714Y-113352380D01*
X142666666Y-113352380D01*
X142761904Y-113400000D01*
X142809523Y-113447619D01*
X142857142Y-113542857D01*
X142857142Y-113685714D01*
X142809523Y-113780952D01*
X142761904Y-113828571D01*
X142666666Y-113876190D01*
X142285714Y-113876190D01*
X143238095Y-113447619D02*
X143285714Y-113400000D01*
X143380952Y-113352380D01*
X143619047Y-113352380D01*
X143714285Y-113400000D01*
X143761904Y-113447619D01*
X143809523Y-113542857D01*
X143809523Y-113638095D01*
X143761904Y-113780952D01*
X143190476Y-114352380D01*
X143809523Y-114352380D01*
X144761904Y-114352380D02*
X144190476Y-114352380D01*
X144476190Y-114352380D02*
X144476190Y-113352380D01*
X144380952Y-113495238D01*
X144285714Y-113590476D01*
X144190476Y-113638095D01*
X142857142Y-116352380D02*
X142523809Y-115876190D01*
X142285714Y-116352380D02*
X142285714Y-115352380D01*
X142666666Y-115352380D01*
X142761904Y-115400000D01*
X142809523Y-115447619D01*
X142857142Y-115542857D01*
X142857142Y-115685714D01*
X142809523Y-115780952D01*
X142761904Y-115828571D01*
X142666666Y-115876190D01*
X142285714Y-115876190D01*
X143238095Y-115447619D02*
X143285714Y-115400000D01*
X143380952Y-115352380D01*
X143619047Y-115352380D01*
X143714285Y-115400000D01*
X143761904Y-115447619D01*
X143809523Y-115542857D01*
X143809523Y-115638095D01*
X143761904Y-115780952D01*
X143190476Y-116352380D01*
X143809523Y-116352380D01*
X144190476Y-115447619D02*
X144238095Y-115400000D01*
X144333333Y-115352380D01*
X144571428Y-115352380D01*
X144666666Y-115400000D01*
X144714285Y-115447619D01*
X144761904Y-115542857D01*
X144761904Y-115638095D01*
X144714285Y-115780952D01*
X144142857Y-116352380D01*
X144761904Y-116352380D01*
D13*
X144976190Y-106221428D02*
X144738095Y-106388095D01*
X144976190Y-106507142D02*
X144476190Y-106507142D01*
X144476190Y-106316666D01*
X144500000Y-106269047D01*
X144523809Y-106245238D01*
X144571428Y-106221428D01*
X144642857Y-106221428D01*
X144690476Y-106245238D01*
X144714285Y-106269047D01*
X144738095Y-106316666D01*
X144738095Y-106507142D01*
X144523809Y-106030952D02*
X144500000Y-106007142D01*
X144476190Y-105959523D01*
X144476190Y-105840476D01*
X144500000Y-105792857D01*
X144523809Y-105769047D01*
X144571428Y-105745238D01*
X144619047Y-105745238D01*
X144690476Y-105769047D01*
X144976190Y-106054761D01*
X144976190Y-105745238D01*
X144642857Y-105316666D02*
X144976190Y-105316666D01*
X144452380Y-105435714D02*
X144809523Y-105554761D01*
X144809523Y-105245238D01*
X136533333Y-128402380D02*
X136604761Y-128426190D01*
X136723809Y-128426190D01*
X136771428Y-128402380D01*
X136795238Y-128378571D01*
X136819047Y-128330952D01*
X136819047Y-128283333D01*
X136795238Y-128235714D01*
X136771428Y-128211904D01*
X136723809Y-128188095D01*
X136628571Y-128164285D01*
X136580952Y-128140476D01*
X136557142Y-128116666D01*
X136533333Y-128069047D01*
X136533333Y-128021428D01*
X136557142Y-127973809D01*
X136580952Y-127950000D01*
X136628571Y-127926190D01*
X136747619Y-127926190D01*
X136819047Y-127950000D01*
X136985714Y-127926190D02*
X137104761Y-128426190D01*
X137200000Y-128069047D01*
X137295238Y-128426190D01*
X137414285Y-127926190D01*
X137866666Y-128426190D02*
X137580952Y-128426190D01*
X137723809Y-128426190D02*
X137723809Y-127926190D01*
X137676190Y-127997619D01*
X137628571Y-128045238D01*
X137580952Y-128069047D01*
D12*
X113988095Y-108702380D02*
X113988095Y-109511904D01*
X114035714Y-109607142D01*
X114083333Y-109654761D01*
X114178571Y-109702380D01*
X114369047Y-109702380D01*
X114464285Y-109654761D01*
X114511904Y-109607142D01*
X114559523Y-109511904D01*
X114559523Y-108702380D01*
X115559523Y-109702380D02*
X114988095Y-109702380D01*
X115273809Y-109702380D02*
X115273809Y-108702380D01*
X115178571Y-108845238D01*
X115083333Y-108940476D01*
X114988095Y-108988095D01*
X114438095Y-132252380D02*
X114438095Y-133061904D01*
X114485714Y-133157142D01*
X114533333Y-133204761D01*
X114628571Y-133252380D01*
X114819047Y-133252380D01*
X114914285Y-133204761D01*
X114961904Y-133157142D01*
X115009523Y-133061904D01*
X115009523Y-132252380D01*
X115438095Y-132347619D02*
X115485714Y-132300000D01*
X115580952Y-132252380D01*
X115819047Y-132252380D01*
X115914285Y-132300000D01*
X115961904Y-132347619D01*
X116009523Y-132442857D01*
X116009523Y-132538095D01*
X115961904Y-132680952D01*
X115390476Y-133252380D01*
X116009523Y-133252380D01*
X131902380Y-106811904D02*
X132711904Y-106811904D01*
X132807142Y-106764285D01*
X132854761Y-106716666D01*
X132902380Y-106621428D01*
X132902380Y-106430952D01*
X132854761Y-106335714D01*
X132807142Y-106288095D01*
X132711904Y-106240476D01*
X131902380Y-106240476D01*
X131902380Y-105859523D02*
X131902380Y-105240476D01*
X132283333Y-105573809D01*
X132283333Y-105430952D01*
X132330952Y-105335714D01*
X132378571Y-105288095D01*
X132473809Y-105240476D01*
X132711904Y-105240476D01*
X132807142Y-105288095D01*
X132854761Y-105335714D01*
X132902380Y-105430952D01*
X132902380Y-105716666D01*
X132854761Y-105811904D01*
X132807142Y-105859523D01*
X120440476Y-90202380D02*
X121107142Y-91202380D01*
X121107142Y-90202380D02*
X120440476Y-91202380D01*
X122011904Y-91202380D02*
X121440476Y-91202380D01*
X121726190Y-91202380D02*
X121726190Y-90202380D01*
X121630952Y-90345238D01*
X121535714Y-90440476D01*
X121440476Y-90488095D01*
X134023809Y-112926190D02*
X134023809Y-113402380D01*
X133690476Y-112402380D02*
X134023809Y-112926190D01*
X134357142Y-112402380D01*
X135214285Y-113402380D02*
X134642857Y-113402380D01*
X134928571Y-113402380D02*
X134928571Y-112402380D01*
X134833333Y-112545238D01*
X134738095Y-112640476D01*
X134642857Y-112688095D01*
D13*
X141178571Y-98428571D02*
X141154761Y-98452380D01*
X141083333Y-98476190D01*
X141035714Y-98476190D01*
X140964285Y-98452380D01*
X140916666Y-98404761D01*
X140892857Y-98357142D01*
X140869047Y-98261904D01*
X140869047Y-98190476D01*
X140892857Y-98095238D01*
X140916666Y-98047619D01*
X140964285Y-98000000D01*
X141035714Y-97976190D01*
X141083333Y-97976190D01*
X141154761Y-98000000D01*
X141178571Y-98023809D01*
X141607142Y-98142857D02*
X141607142Y-98476190D01*
X141488095Y-97952380D02*
X141369047Y-98309523D01*
X141678571Y-98309523D01*
X141892857Y-98476190D02*
X141988095Y-98476190D01*
X142035714Y-98452380D01*
X142059523Y-98428571D01*
X142107142Y-98357142D01*
X142130952Y-98261904D01*
X142130952Y-98071428D01*
X142107142Y-98023809D01*
X142083333Y-98000000D01*
X142035714Y-97976190D01*
X141940476Y-97976190D01*
X141892857Y-98000000D01*
X141869047Y-98023809D01*
X141845238Y-98071428D01*
X141845238Y-98190476D01*
X141869047Y-98238095D01*
X141892857Y-98261904D01*
X141940476Y-98285714D01*
X142035714Y-98285714D01*
X142083333Y-98261904D01*
X142107142Y-98238095D01*
X142130952Y-98190476D01*
X141178571Y-93178571D02*
X141154761Y-93202380D01*
X141083333Y-93226190D01*
X141035714Y-93226190D01*
X140964285Y-93202380D01*
X140916666Y-93154761D01*
X140892857Y-93107142D01*
X140869047Y-93011904D01*
X140869047Y-92940476D01*
X140892857Y-92845238D01*
X140916666Y-92797619D01*
X140964285Y-92750000D01*
X141035714Y-92726190D01*
X141083333Y-92726190D01*
X141154761Y-92750000D01*
X141178571Y-92773809D01*
X141630952Y-92726190D02*
X141392857Y-92726190D01*
X141369047Y-92964285D01*
X141392857Y-92940476D01*
X141440476Y-92916666D01*
X141559523Y-92916666D01*
X141607142Y-92940476D01*
X141630952Y-92964285D01*
X141654761Y-93011904D01*
X141654761Y-93130952D01*
X141630952Y-93178571D01*
X141607142Y-93202380D01*
X141559523Y-93226190D01*
X141440476Y-93226190D01*
X141392857Y-93202380D01*
X141369047Y-93178571D01*
X141964285Y-92726190D02*
X142011904Y-92726190D01*
X142059523Y-92750000D01*
X142083333Y-92773809D01*
X142107142Y-92821428D01*
X142130952Y-92916666D01*
X142130952Y-93035714D01*
X142107142Y-93130952D01*
X142083333Y-93178571D01*
X142059523Y-93202380D01*
X142011904Y-93226190D01*
X141964285Y-93226190D01*
X141916666Y-93202380D01*
X141892857Y-93178571D01*
X141869047Y-93130952D01*
X141845238Y-93035714D01*
X141845238Y-92916666D01*
X141869047Y-92821428D01*
X141892857Y-92773809D01*
X141916666Y-92750000D01*
X141964285Y-92726190D01*
X143428571Y-101878571D02*
X143404761Y-101902380D01*
X143333333Y-101926190D01*
X143285714Y-101926190D01*
X143214285Y-101902380D01*
X143166666Y-101854761D01*
X143142857Y-101807142D01*
X143119047Y-101711904D01*
X143119047Y-101640476D01*
X143142857Y-101545238D01*
X143166666Y-101497619D01*
X143214285Y-101450000D01*
X143285714Y-101426190D01*
X143333333Y-101426190D01*
X143404761Y-101450000D01*
X143428571Y-101473809D01*
X143880952Y-101426190D02*
X143642857Y-101426190D01*
X143619047Y-101664285D01*
X143642857Y-101640476D01*
X143690476Y-101616666D01*
X143809523Y-101616666D01*
X143857142Y-101640476D01*
X143880952Y-101664285D01*
X143904761Y-101711904D01*
X143904761Y-101830952D01*
X143880952Y-101878571D01*
X143857142Y-101902380D01*
X143809523Y-101926190D01*
X143690476Y-101926190D01*
X143642857Y-101902380D01*
X143619047Y-101878571D01*
X144380952Y-101926190D02*
X144095238Y-101926190D01*
X144238095Y-101926190D02*
X144238095Y-101426190D01*
X144190476Y-101497619D01*
X144142857Y-101545238D01*
X144095238Y-101569047D01*
D12*
X137857142Y-100452380D02*
X137380952Y-100452380D01*
X137380952Y-99452380D01*
X138714285Y-100452380D02*
X138142857Y-100452380D01*
X138428571Y-100452380D02*
X138428571Y-99452380D01*
X138333333Y-99595238D01*
X138238095Y-99690476D01*
X138142857Y-99738095D01*
X139333333Y-99452380D02*
X139428571Y-99452380D01*
X139523809Y-99500000D01*
X139571428Y-99547619D01*
X139619047Y-99642857D01*
X139666666Y-99833333D01*
X139666666Y-100071428D01*
X139619047Y-100261904D01*
X139571428Y-100357142D01*
X139523809Y-100404761D01*
X139428571Y-100452380D01*
X139333333Y-100452380D01*
X139238095Y-100404761D01*
X139190476Y-100357142D01*
X139142857Y-100261904D01*
X139095238Y-100071428D01*
X139095238Y-99833333D01*
X139142857Y-99642857D01*
X139190476Y-99547619D01*
X139238095Y-99500000D01*
X139333333Y-99452380D01*
X152011904Y-96202380D02*
X152011904Y-95202380D01*
X152392857Y-95202380D01*
X152488095Y-95250000D01*
X152535714Y-95297619D01*
X152583333Y-95392857D01*
X152583333Y-95535714D01*
X152535714Y-95630952D01*
X152488095Y-95678571D01*
X152392857Y-95726190D01*
X152011904Y-95726190D01*
X153440476Y-95202380D02*
X153250000Y-95202380D01*
X153154761Y-95250000D01*
X153107142Y-95297619D01*
X153011904Y-95440476D01*
X152964285Y-95630952D01*
X152964285Y-96011904D01*
X153011904Y-96107142D01*
X153059523Y-96154761D01*
X153154761Y-96202380D01*
X153345238Y-96202380D01*
X153440476Y-96154761D01*
X153488095Y-96107142D01*
X153535714Y-96011904D01*
X153535714Y-95773809D01*
X153488095Y-95678571D01*
X153440476Y-95630952D01*
X153345238Y-95583333D01*
X153154761Y-95583333D01*
X153059523Y-95630952D01*
X153011904Y-95678571D01*
X152964285Y-95773809D01*
D13*
X141428571Y-96726190D02*
X141261904Y-96488095D01*
X141142857Y-96726190D02*
X141142857Y-96226190D01*
X141333333Y-96226190D01*
X141380952Y-96250000D01*
X141404761Y-96273809D01*
X141428571Y-96321428D01*
X141428571Y-96392857D01*
X141404761Y-96440476D01*
X141380952Y-96464285D01*
X141333333Y-96488095D01*
X141142857Y-96488095D01*
X141619047Y-96273809D02*
X141642857Y-96250000D01*
X141690476Y-96226190D01*
X141809523Y-96226190D01*
X141857142Y-96250000D01*
X141880952Y-96273809D01*
X141904761Y-96321428D01*
X141904761Y-96369047D01*
X141880952Y-96440476D01*
X141595238Y-96726190D01*
X141904761Y-96726190D01*
X142357142Y-96226190D02*
X142119047Y-96226190D01*
X142095238Y-96464285D01*
X142119047Y-96440476D01*
X142166666Y-96416666D01*
X142285714Y-96416666D01*
X142333333Y-96440476D01*
X142357142Y-96464285D01*
X142380952Y-96511904D01*
X142380952Y-96630952D01*
X142357142Y-96678571D01*
X142333333Y-96702380D01*
X142285714Y-96726190D01*
X142166666Y-96726190D01*
X142119047Y-96702380D01*
X142095238Y-96678571D01*
X141428571Y-95076190D02*
X141261904Y-94838095D01*
X141142857Y-95076190D02*
X141142857Y-94576190D01*
X141333333Y-94576190D01*
X141380952Y-94600000D01*
X141404761Y-94623809D01*
X141428571Y-94671428D01*
X141428571Y-94742857D01*
X141404761Y-94790476D01*
X141380952Y-94814285D01*
X141333333Y-94838095D01*
X141142857Y-94838095D01*
X141619047Y-94623809D02*
X141642857Y-94600000D01*
X141690476Y-94576190D01*
X141809523Y-94576190D01*
X141857142Y-94600000D01*
X141880952Y-94623809D01*
X141904761Y-94671428D01*
X141904761Y-94719047D01*
X141880952Y-94790476D01*
X141595238Y-95076190D01*
X141904761Y-95076190D01*
X142333333Y-94576190D02*
X142238095Y-94576190D01*
X142190476Y-94600000D01*
X142166666Y-94623809D01*
X142119047Y-94695238D01*
X142095238Y-94790476D01*
X142095238Y-94980952D01*
X142119047Y-95028571D01*
X142142857Y-95052380D01*
X142190476Y-95076190D01*
X142285714Y-95076190D01*
X142333333Y-95052380D01*
X142357142Y-95028571D01*
X142380952Y-94980952D01*
X142380952Y-94861904D01*
X142357142Y-94814285D01*
X142333333Y-94790476D01*
X142285714Y-94766666D01*
X142190476Y-94766666D01*
X142142857Y-94790476D01*
X142119047Y-94814285D01*
X142095238Y-94861904D01*
D12*
X98352380Y-90133333D02*
X99066666Y-90133333D01*
X99209523Y-90180952D01*
X99304761Y-90276190D01*
X99352380Y-90419047D01*
X99352380Y-90514285D01*
X99352380Y-89133333D02*
X99352380Y-89704761D01*
X99352380Y-89419047D02*
X98352380Y-89419047D01*
X98495238Y-89514285D01*
X98590476Y-89609523D01*
X98638095Y-89704761D01*
D13*
X141678571Y-91476190D02*
X141511904Y-91238095D01*
X141392857Y-91476190D02*
X141392857Y-90976190D01*
X141583333Y-90976190D01*
X141630952Y-91000000D01*
X141654761Y-91023809D01*
X141678571Y-91071428D01*
X141678571Y-91142857D01*
X141654761Y-91190476D01*
X141630952Y-91214285D01*
X141583333Y-91238095D01*
X141392857Y-91238095D01*
X141869047Y-91023809D02*
X141892857Y-91000000D01*
X141940476Y-90976190D01*
X142059523Y-90976190D01*
X142107142Y-91000000D01*
X142130952Y-91023809D01*
X142154761Y-91071428D01*
X142154761Y-91119047D01*
X142130952Y-91190476D01*
X141845238Y-91476190D01*
X142154761Y-91476190D01*
X142321428Y-90976190D02*
X142654761Y-90976190D01*
X142440476Y-91476190D01*
D12*
X130161904Y-120952380D02*
X130161904Y-119952380D01*
X130542857Y-119952380D01*
X130638095Y-120000000D01*
X130685714Y-120047619D01*
X130733333Y-120142857D01*
X130733333Y-120285714D01*
X130685714Y-120380952D01*
X130638095Y-120428571D01*
X130542857Y-120476190D01*
X130161904Y-120476190D01*
X131066666Y-119952380D02*
X131733333Y-119952380D01*
X131304761Y-120952380D01*
X143107142Y-118352380D02*
X142773809Y-117876190D01*
X142535714Y-118352380D02*
X142535714Y-117352380D01*
X142916666Y-117352380D01*
X143011904Y-117400000D01*
X143059523Y-117447619D01*
X143107142Y-117542857D01*
X143107142Y-117685714D01*
X143059523Y-117780952D01*
X143011904Y-117828571D01*
X142916666Y-117876190D01*
X142535714Y-117876190D01*
X143488095Y-117447619D02*
X143535714Y-117400000D01*
X143630952Y-117352380D01*
X143869047Y-117352380D01*
X143964285Y-117400000D01*
X144011904Y-117447619D01*
X144059523Y-117542857D01*
X144059523Y-117638095D01*
X144011904Y-117780952D01*
X143440476Y-118352380D01*
X144059523Y-118352380D01*
X144630952Y-117780952D02*
X144535714Y-117733333D01*
X144488095Y-117685714D01*
X144440476Y-117590476D01*
X144440476Y-117542857D01*
X144488095Y-117447619D01*
X144535714Y-117400000D01*
X144630952Y-117352380D01*
X144821428Y-117352380D01*
X144916666Y-117400000D01*
X144964285Y-117447619D01*
X145011904Y-117542857D01*
X145011904Y-117590476D01*
X144964285Y-117685714D01*
X144916666Y-117733333D01*
X144821428Y-117780952D01*
X144630952Y-117780952D01*
X144535714Y-117828571D01*
X144488095Y-117876190D01*
X144440476Y-117971428D01*
X144440476Y-118161904D01*
X144488095Y-118257142D01*
X144535714Y-118304761D01*
X144630952Y-118352380D01*
X144821428Y-118352380D01*
X144916666Y-118304761D01*
X144964285Y-118257142D01*
X145011904Y-118161904D01*
X145011904Y-117971428D01*
X144964285Y-117876190D01*
X144916666Y-117828571D01*
X144821428Y-117780952D01*
X127337142Y-116392857D02*
X127384761Y-116440476D01*
X127432380Y-116583333D01*
X127432380Y-116678571D01*
X127384761Y-116821428D01*
X127289523Y-116916666D01*
X127194285Y-116964285D01*
X127003809Y-117011904D01*
X126860952Y-117011904D01*
X126670476Y-116964285D01*
X126575238Y-116916666D01*
X126480000Y-116821428D01*
X126432380Y-116678571D01*
X126432380Y-116583333D01*
X126480000Y-116440476D01*
X126527619Y-116392857D01*
X126432380Y-115488095D02*
X126432380Y-115964285D01*
X126908571Y-116011904D01*
X126860952Y-115964285D01*
X126813333Y-115869047D01*
X126813333Y-115630952D01*
X126860952Y-115535714D01*
X126908571Y-115488095D01*
X127003809Y-115440476D01*
X127241904Y-115440476D01*
X127337142Y-115488095D01*
X127384761Y-115535714D01*
X127432380Y-115630952D01*
X127432380Y-115869047D01*
X127384761Y-115964285D01*
X127337142Y-116011904D01*
X126527619Y-115059523D02*
X126480000Y-115011904D01*
X126432380Y-114916666D01*
X126432380Y-114678571D01*
X126480000Y-114583333D01*
X126527619Y-114535714D01*
X126622857Y-114488095D01*
X126718095Y-114488095D01*
X126860952Y-114535714D01*
X127432380Y-115107142D01*
X127432380Y-114488095D01*
X122190476Y-114452380D02*
X122857142Y-115452380D01*
X122857142Y-114452380D02*
X122190476Y-115452380D01*
X123190476Y-114547619D02*
X123238095Y-114500000D01*
X123333333Y-114452380D01*
X123571428Y-114452380D01*
X123666666Y-114500000D01*
X123714285Y-114547619D01*
X123761904Y-114642857D01*
X123761904Y-114738095D01*
X123714285Y-114880952D01*
X123142857Y-115452380D01*
X123761904Y-115452380D01*
X152059523Y-108257142D02*
X152011904Y-108304761D01*
X151869047Y-108352380D01*
X151773809Y-108352380D01*
X151630952Y-108304761D01*
X151535714Y-108209523D01*
X151488095Y-108114285D01*
X151440476Y-107923809D01*
X151440476Y-107780952D01*
X151488095Y-107590476D01*
X151535714Y-107495238D01*
X151630952Y-107400000D01*
X151773809Y-107352380D01*
X151869047Y-107352380D01*
X152011904Y-107400000D01*
X152059523Y-107447619D01*
X152678571Y-107352380D02*
X152869047Y-107352380D01*
X152964285Y-107400000D01*
X153059523Y-107495238D01*
X153107142Y-107685714D01*
X153107142Y-108019047D01*
X153059523Y-108209523D01*
X152964285Y-108304761D01*
X152869047Y-108352380D01*
X152678571Y-108352380D01*
X152583333Y-108304761D01*
X152488095Y-108209523D01*
X152440476Y-108019047D01*
X152440476Y-107685714D01*
X152488095Y-107495238D01*
X152583333Y-107400000D01*
X152678571Y-107352380D01*
X153488095Y-108304761D02*
X153630952Y-108352380D01*
X153869047Y-108352380D01*
X153964285Y-108304761D01*
X154011904Y-108257142D01*
X154059523Y-108161904D01*
X154059523Y-108066666D01*
X154011904Y-107971428D01*
X153964285Y-107923809D01*
X153869047Y-107876190D01*
X153678571Y-107828571D01*
X153583333Y-107780952D01*
X153535714Y-107733333D01*
X153488095Y-107638095D01*
X153488095Y-107542857D01*
X153535714Y-107447619D01*
X153583333Y-107400000D01*
X153678571Y-107352380D01*
X153916666Y-107352380D01*
X154059523Y-107400000D01*
X151280952Y-114352380D02*
X151280952Y-113352380D01*
X151519047Y-113352380D01*
X151661904Y-113400000D01*
X151757142Y-113495238D01*
X151804761Y-113590476D01*
X151852380Y-113780952D01*
X151852380Y-113923809D01*
X151804761Y-114114285D01*
X151757142Y-114209523D01*
X151661904Y-114304761D01*
X151519047Y-114352380D01*
X151280952Y-114352380D01*
X152423809Y-113352380D02*
X152423809Y-113590476D01*
X152185714Y-113495238D02*
X152423809Y-113590476D01*
X152661904Y-113495238D01*
X152280952Y-113780952D02*
X152423809Y-113590476D01*
X152566666Y-113780952D01*
X153566666Y-114352380D02*
X152995238Y-114352380D01*
X153280952Y-114352380D02*
X153280952Y-113352380D01*
X153185714Y-113495238D01*
X153090476Y-113590476D01*
X152995238Y-113638095D01*
X151416666Y-112352380D02*
X151416666Y-111352380D01*
X151654761Y-111352380D01*
X151797619Y-111400000D01*
X151892857Y-111495238D01*
X151940476Y-111590476D01*
X151988095Y-111780952D01*
X151988095Y-111923809D01*
X151940476Y-112114285D01*
X151892857Y-112209523D01*
X151797619Y-112304761D01*
X151654761Y-112352380D01*
X151416666Y-112352380D01*
X152416666Y-112352380D02*
X152416666Y-111352380D01*
X152750000Y-112066666D01*
X153083333Y-111352380D01*
X153083333Y-112352380D01*
X154130952Y-112352380D02*
X153797619Y-111876190D01*
X153559523Y-112352380D02*
X153559523Y-111352380D01*
X153940476Y-111352380D01*
X154035714Y-111400000D01*
X154083333Y-111447619D01*
X154130952Y-111542857D01*
X154130952Y-111685714D01*
X154083333Y-111780952D01*
X154035714Y-111828571D01*
X153940476Y-111876190D01*
X153559523Y-111876190D01*
X151488095Y-118352380D02*
X151488095Y-117352380D01*
X152059523Y-118352380D01*
X152059523Y-117352380D01*
X152440476Y-117352380D02*
X153107142Y-118352380D01*
X153107142Y-117352380D02*
X152440476Y-118352380D01*
X153488095Y-118352380D02*
X153488095Y-117352380D01*
X153726190Y-117352380D01*
X153869047Y-117400000D01*
X153964285Y-117495238D01*
X154011904Y-117590476D01*
X154059523Y-117780952D01*
X154059523Y-117923809D01*
X154011904Y-118114285D01*
X153964285Y-118209523D01*
X153869047Y-118304761D01*
X153726190Y-118352380D01*
X153488095Y-118352380D01*
X151226190Y-110352380D02*
X151226190Y-109352380D01*
X151607142Y-109352380D01*
X151702380Y-109400000D01*
X151750000Y-109447619D01*
X151797619Y-109542857D01*
X151797619Y-109685714D01*
X151750000Y-109780952D01*
X151702380Y-109828571D01*
X151607142Y-109876190D01*
X151226190Y-109876190D01*
X152083333Y-109352380D02*
X152654761Y-109352380D01*
X152369047Y-110352380D02*
X152369047Y-109352380D01*
X152845238Y-109352380D02*
X153416666Y-109352380D01*
X153130952Y-110352380D02*
X153130952Y-109352380D01*
X151416666Y-104352380D02*
X151416666Y-103352380D01*
X151797619Y-103352380D01*
X151892857Y-103400000D01*
X151940476Y-103447619D01*
X151988095Y-103542857D01*
X151988095Y-103685714D01*
X151940476Y-103780952D01*
X151892857Y-103828571D01*
X151797619Y-103876190D01*
X151416666Y-103876190D01*
X152321428Y-103352380D02*
X152559523Y-104352380D01*
X152750000Y-103638095D01*
X152940476Y-104352380D01*
X153178571Y-103352380D01*
X154130952Y-104352380D02*
X153797619Y-103876190D01*
X153559523Y-104352380D02*
X153559523Y-103352380D01*
X153940476Y-103352380D01*
X154035714Y-103400000D01*
X154083333Y-103447619D01*
X154130952Y-103542857D01*
X154130952Y-103685714D01*
X154083333Y-103780952D01*
X154035714Y-103828571D01*
X153940476Y-103876190D01*
X153559523Y-103876190D01*
X151535714Y-106304761D02*
X151678571Y-106352380D01*
X151916666Y-106352380D01*
X152011904Y-106304761D01*
X152059523Y-106257142D01*
X152107142Y-106161904D01*
X152107142Y-106066666D01*
X152059523Y-105971428D01*
X152011904Y-105923809D01*
X151916666Y-105876190D01*
X151726190Y-105828571D01*
X151630952Y-105780952D01*
X151583333Y-105733333D01*
X151535714Y-105638095D01*
X151535714Y-105542857D01*
X151583333Y-105447619D01*
X151630952Y-105400000D01*
X151726190Y-105352380D01*
X151964285Y-105352380D01*
X152107142Y-105400000D01*
X153107142Y-106352380D02*
X152773809Y-105876190D01*
X152535714Y-106352380D02*
X152535714Y-105352380D01*
X152916666Y-105352380D01*
X153011904Y-105400000D01*
X153059523Y-105447619D01*
X153107142Y-105542857D01*
X153107142Y-105685714D01*
X153059523Y-105780952D01*
X153011904Y-105828571D01*
X152916666Y-105876190D01*
X152535714Y-105876190D01*
X153392857Y-105352380D02*
X153726190Y-106352380D01*
X154059523Y-105352380D01*
X151845238Y-115876190D02*
X151845238Y-116352380D01*
X151511904Y-115352380D02*
X151845238Y-115876190D01*
X152178571Y-115352380D01*
X152464285Y-116304761D02*
X152607142Y-116352380D01*
X152845238Y-116352380D01*
X152940476Y-116304761D01*
X152988095Y-116257142D01*
X153035714Y-116161904D01*
X153035714Y-116066666D01*
X152988095Y-115971428D01*
X152940476Y-115923809D01*
X152845238Y-115876190D01*
X152654761Y-115828571D01*
X152559523Y-115780952D01*
X152511904Y-115733333D01*
X152464285Y-115638095D01*
X152464285Y-115542857D01*
X152511904Y-115447619D01*
X152559523Y-115400000D01*
X152654761Y-115352380D01*
X152892857Y-115352380D01*
X153035714Y-115400000D01*
X153797619Y-115828571D02*
X153464285Y-115828571D01*
X153464285Y-116352380D02*
X153464285Y-115352380D01*
X153940476Y-115352380D01*
X151035714Y-120102380D02*
X151035714Y-119102380D01*
X151416666Y-119102380D01*
X151511904Y-119150000D01*
X151559523Y-119197619D01*
X151607142Y-119292857D01*
X151607142Y-119435714D01*
X151559523Y-119530952D01*
X151511904Y-119578571D01*
X151416666Y-119626190D01*
X151035714Y-119626190D01*
X151988095Y-119197619D02*
X152035714Y-119150000D01*
X152130952Y-119102380D01*
X152369047Y-119102380D01*
X152464285Y-119150000D01*
X152511904Y-119197619D01*
X152559523Y-119292857D01*
X152559523Y-119388095D01*
X152511904Y-119530952D01*
X151940476Y-120102380D01*
X152559523Y-120102380D01*
X153464285Y-119102380D02*
X152988095Y-119102380D01*
X152940476Y-119578571D01*
X152988095Y-119530952D01*
X153083333Y-119483333D01*
X153321428Y-119483333D01*
X153416666Y-119530952D01*
X153464285Y-119578571D01*
X153511904Y-119673809D01*
X153511904Y-119911904D01*
X153464285Y-120007142D01*
X153416666Y-120054761D01*
X153321428Y-120102380D01*
X153083333Y-120102380D01*
X152988095Y-120054761D01*
X152940476Y-120007142D01*
X143107142Y-120102380D02*
X142773809Y-119626190D01*
X142535714Y-120102380D02*
X142535714Y-119102380D01*
X142916666Y-119102380D01*
X143011904Y-119150000D01*
X143059523Y-119197619D01*
X143107142Y-119292857D01*
X143107142Y-119435714D01*
X143059523Y-119530952D01*
X143011904Y-119578571D01*
X142916666Y-119626190D01*
X142535714Y-119626190D01*
X143488095Y-119197619D02*
X143535714Y-119150000D01*
X143630952Y-119102380D01*
X143869047Y-119102380D01*
X143964285Y-119150000D01*
X144011904Y-119197619D01*
X144059523Y-119292857D01*
X144059523Y-119388095D01*
X144011904Y-119530952D01*
X143440476Y-120102380D01*
X144059523Y-120102380D01*
X144392857Y-119102380D02*
X145011904Y-119102380D01*
X144678571Y-119483333D01*
X144821428Y-119483333D01*
X144916666Y-119530952D01*
X144964285Y-119578571D01*
X145011904Y-119673809D01*
X145011904Y-119911904D01*
X144964285Y-120007142D01*
X144916666Y-120054761D01*
X144821428Y-120102380D01*
X144535714Y-120102380D01*
X144440476Y-120054761D01*
X144392857Y-120007142D01*
M02*
