M48
;DRILL file {KiCad (2017-12-10 revision 6ee26fd)-master} date Friday, 02. February 2018 'u59' 02:59:11
;FORMAT={3:3/ absolute / metric / suppress leading zeros}
FMAT,2
METRIC,TZ
T1C0.400
T2C1.016
T3C1.500
T4C1.700
T5C0.899
T6C2.750
%
G90
G05
M71
T1
X107975Y-100469
X109016Y-130810
X109803Y-125346
X109962Y-105250
X111511Y-100436
X111751Y-122213
X113058Y-93916
X113117Y-99435
X113217Y-122213
X114816Y-122794
X116250Y-98668
X116543Y-121571
X117703Y-114398
X118801Y-110316
X119421Y-108650
X120134Y-109690
X120459Y-104380
X120483Y-103519
X120676Y-115586
X121305Y-105250
X121453Y-106862
X121543Y-126566
X122499Y-125468
X123222Y-120518
X124200Y-102153
X125235Y-102846
X125273Y-121083
X125973Y-104500
X126137Y-115586
X126675Y-129623
X126685Y-118161
X126724Y-107048
X126738Y-103838
X126786Y-128363
X127958Y-129385
X128517Y-130046
X128871Y-110268
X129365Y-106011
X129482Y-107261
X129636Y-99799
X130683Y-98665
X130851Y-102846
X131725Y-103644
X132000Y-99329
X132004Y-105527
X132029Y-108947
X132500Y-102578
X132827Y-107976
X132868Y-99178
X133469Y-107486
X133780Y-121384
X134500Y-100247
X134693Y-104088
X134956Y-103263
X135408Y-106318
X135429Y-104617
X135510Y-99927
X135838Y-109753
X137766Y-107689
X138012Y-121384
X138490Y-103213
X139762Y-103118
X140056Y-107190
X141387Y-108191
X141714Y-110658
X141997Y-100672
X142820Y-94750
X142829Y-96500
X143551Y-92150
X144648Y-106453
X144979Y-107345
X145619Y-108679
X146055Y-110715
X146259Y-106736
X148069Y-125620
X149419Y-107022
T2
X144850Y-128050
X147390Y-128050
X149930Y-128050
X129400Y-123000
X129400Y-125540
X129400Y-128080
X131940Y-123000
X131940Y-125540
X152470Y-128050
X98800Y-84760
X98800Y-87300
X101340Y-84760
X101340Y-87300
X103880Y-87300
X106420Y-84760
X106420Y-87300
X108960Y-84760
X108960Y-87300
X111500Y-84760
X111500Y-87300
X114040Y-84760
X114040Y-87300
X116580Y-84760
X116580Y-87300
X119120Y-84760
X119120Y-87300
X121660Y-84760
X121660Y-87300
X124200Y-84760
X124200Y-87300
X126740Y-84760
X126740Y-87300
X129280Y-84760
X129280Y-87300
X131820Y-84760
X131820Y-87300
X134360Y-84760
X134360Y-87300
X136900Y-84760
X136900Y-87300
X139440Y-84760
X139440Y-87300
X141980Y-84760
X141980Y-87300
X144520Y-84760
X144520Y-87300
X147060Y-84760
X147060Y-87300
X131940Y-128080
X103880Y-84760
X129560Y-134200
X132100Y-134200
X134640Y-134200
X137180Y-134200
X144850Y-123550
X147390Y-123550
X149930Y-123550
X152470Y-123550
T3
X96500Y-95750
X96500Y-125000
T4
X93960Y-93210
X93960Y-98290
X99040Y-93210
X99040Y-98290
X93960Y-122460
X93960Y-127540
X99040Y-122460
X99040Y-127540
T5
X150149Y-93550
X150149Y-97950
T6
X151750Y-86000
X93750Y-86000
X151750Y-135000
X93750Y-135000
T0
M30
